<svg id="Layer_1" data-name="Layer 1" xmlns="http://www.w3.org/2000/svg" xmlns:xlink="http://www.w3.org/1999/xlink" viewBox="0 0 1000 385"><defs><style>.cls-1,.cls-10,.cls-11,.cls-14{fill:none;}.cls-2{clip-path:url(#clip-path);}.cls-3{fill:#ec663c;}.cls-4{fill:#66a279;}.cls-5{fill:#f4a74e;}.cls-6{fill:#ef9370;}.cls-7{fill:#6abea3;}.cls-8{fill:#c5e2e5;}.cls-9{fill:#faf0d0;}.cls-10,.cls-11{stroke:#092745;}.cls-10,.cls-11,.cls-12,.cls-14{stroke-miterlimit:10;}.cls-10{stroke-width:1.21px;}.cls-11{stroke-width:0.36px;}.cls-12,.cls-13{fill:#092745;}.cls-12{stroke:#c5dae5;stroke-width:2.5px;}.cls-14{stroke:#6abea3;stroke-width:1.4px;}</style><clipPath id="clip-path"><rect class="cls-1" x="-242.97" y="-315" width="1241.71" height="699.33"/></clipPath></defs><title>background-mountains</title><g class="cls-2"><path class="cls-3" d="M964.8,28.94c-16.49-13.49-42.14-11-42.14-11L848.87,18H810.13s-16-3.17-25.18,14c-8,15-9.56,26.92-25.46,36.55a97.24,97.24,0,0,1,20.13,97.11c8.86,14.65,8.63,35.15,26.07,36.4,21,1.5,77.95,1.5,83.95,1.5s13.49,6,18,13.49,86,164.16,86,164.16l92.88,0C1087.4,360.19,981.29,42.43,964.8,28.94Z"/><path class="cls-4" d="M700.22,274.71s-1.13-18.17-1.19-43.48a97.17,97.17,0,0,1-109.15-85.32H569.07s-16-3.17-25.19,14c-10.77,20.2-9.79,34.85-48.09,45.79-48.08,13.74-36.63,196.93-36.63,196.93L582.58,399,771.06,385.3l222.62-4.1L797.54,352.57Z"/><path class="cls-4" d="M889.64,203.55c-6,0-63,0-83.95-1.5-17.44-1.25-17.21-21.75-26.07-36.4A97.88,97.88,0,0,1,699,231.23c.06,25.31,1.19,43.48,1.19,43.48l97.32,77.86L993.68,381.2s-81.56-156.66-86-164.16S895.63,203.55,889.64,203.55Z"/><path class="cls-5" d="M704.09,146.44c5-34.35,14.68-63.49,32.77-68.66,9.88-2.82,17.11-5.89,22.63-9.24a97.78,97.78,0,0,0-170.38,65.61,99.11,99.11,0,0,0,.77,11.76h17.93Z"/><path class="cls-6" d="M704.09,146.44l26.64.14s25.65-2.45,42.14,11a30.73,30.73,0,0,1,6.75,8,97.24,97.24,0,0,0-20.13-97.11C754,71.89,746.74,75,736.86,77.78,718.77,83,709.11,112.09,704.09,146.44Z"/><path class="cls-7" d="M687,232.05a97.47,97.47,0,0,0,12-.82c0-24.85.94-56.57,5.06-84.79l-96.28-.53H589.88A97.86,97.86,0,0,0,687,232.05Z"/><path class="cls-7" d="M772.87,157.63c-16.49-13.5-42.14-11-42.14-11l-26.64-.14C700,174.66,699,206.38,699,231.23a97.88,97.88,0,0,0,80.59-65.58A30.73,30.73,0,0,0,772.87,157.63Z"/><path class="cls-8" d="M286.89,306.38A129.08,129.08,0,0,1,543.4,283.17l.4,0a93.32,93.32,0,0,0,185.44-4.08h.39a129.08,129.08,0,0,1,256.17-2.39l.15,2,.06,2.71a93.32,93.32,0,0,0,185.66-15.42l35.75-.79a129.08,129.08,0,0,1-257,20l-.15-2-.06-2.7a93.32,93.32,0,0,0-185.31,5h-.4a129.08,129.08,0,0,1-255.69,5.63l-.4,0a93.32,93.32,0,0,0-185.79,14.47Z"/><path class="cls-9" d="M287.69,342.74A129.08,129.08,0,0,1,544.2,319.53l.4,0A93.32,93.32,0,0,0,730,315.42h.39A129.08,129.08,0,0,1,986.6,313l.15,2,.06,2.7a93.32,93.32,0,0,0,185.66-15.42l35.75-.78c1.57,71.16-55,130.32-126.21,131.89A128.85,128.85,0,0,1,951.24,321.48l-.15-2-.06-2.7a93.32,93.32,0,0,0-185.31,5h-.4a129.07,129.07,0,0,1-255.69,5.62l-.4,0A93.32,93.32,0,0,0,323.44,342Z"/><path class="cls-8" d="M288.49,379.1c-1.57-71.16,55.05-130.32,126.21-131.89A128.86,128.86,0,0,1,545,355.89l.4,0a93.32,93.32,0,0,0,185.44-4.08l.39,0a129.08,129.08,0,0,1,256.17-2.4l.15,2,.06,2.7a93.32,93.32,0,0,0,185.66-15.42l35.75-.78c1.57,71.16-55,130.32-126.21,131.89-65.89,1.45-95.31-27.21-104-92.46l-8.62,21.54-8.62,21.55c-6.68-46.69-38.86,5.42-86.18,6.46-47.63,1-45.37-60.31-49.55-12.92l-17.24-10.78c-7.27,64-103.12,67.91-167.9,69.34S517.07,521.69,507,458.09l-2.16-37.7c-6.26-47.16-45,16.19-92.64,17.23-51.45,1.14-89.09-110.75-88-59.3Z"/><path class="cls-4" d="M106.44,148.09A44.14,44.14,0,1,0,62.3,104h44.14Z"/><path class="cls-8" d="M106.44,148.09V104H62.3A44.14,44.14,0,0,0,106.44,148.09Z"/><circle class="cls-9" cx="106.44" cy="103.95" r="31.47"/><polyline class="cls-10" points="106.26 101.95 106.26 128.45 106.26 218.15"/><line class="cls-10" x1="126.02" y1="105.99" x2="106.26" y2="128.45"/><path class="cls-8" d="M845.51,109.34a12.68,12.68,0,1,1,25.35,0"/><path class="cls-8" d="M845.51,125.55a12.68,12.68,0,0,1,25.35,0"/><path class="cls-8" d="M845.51,142.33a12.68,12.68,0,1,1,25.35,0"/><line class="cls-11" x1="858.18" y1="103" x2="858.18" y2="161.56"/><circle class="cls-12" cx="858.54" cy="84.68" r="4.37"/><circle class="cls-8" cx="108.97" cy="294.03" r="76.83"/><circle class="cls-7" cx="285.62" cy="160.77" r="30.56"/><path class="cls-5" d="M65.12,294.36a3.7,3.7,0,0,0-6.47-.31L9.15,374.48a3.7,3.7,0,0,0,1.95,5.43l45.42,15.73,33.26-51.1Z"/><path class="cls-5" d="M201.67,251.57l-12.56-42.89a5.54,5.54,0,0,0-10-1.47L89.78,344.54l33.09,67.37a3.7,3.7,0,0,1-4.54,5.12L56.52,395.64,43.69,415.36l209,10.39-3.52-12-71.54-.7Z"/><path class="cls-6" d="M122.87,411.91,89.78,344.54l-33.26,51.1L118.33,417A3.7,3.7,0,0,0,122.87,411.91Z"/><path class="cls-13" d="M228.64,182.5a9.8,9.8,0,0,0-17.38,4.65l-9.59,64.42,47.51,162.18,13,.13,47.07-129.7Z"/><polygon class="cls-13" points="356.35 414.8 413.21 415.36 341.98 325.5 376.25 414.2 356.35 414.8"/><polygon class="cls-6" points="177.64 413.05 249.18 413.75 201.67 251.56 177.64 413.05"/><path class="cls-5" d="M322,273.65a4.77,4.77,0,0,0-8.93.09l-3.79,10.44L342,325.5Z"/><polygon class="cls-6" points="376.25 414.2 341.98 325.5 309.23 284.18 262.16 413.88 356.35 414.8 376.25 414.2"/><path class="cls-14" d="M382,364.37c-4.52-.12-11.74-8.28-11.74-8.28s-7.9,7.7-12.12,7.58-11.74-8.28-11.74-8.28-7.67,7.71-12.11,7.59-11.74-8.29-11.74-8.29-6.77,7.73-12.11,7.58v0c-4.52-.12-11.74-8.28-11.74-8.28s-7.9,7.7-12.12,7.59-11.74-8.29-11.74-8.29-7.67,7.71-12.11,7.59S251,352.55,251,352.55s-6.77,7.74-12.11,7.59"/><path class="cls-14" d="M382.42,350.53c-4.51-.12-11.74-8.28-11.74-8.28s-7.89,7.7-12.12,7.59-11.73-8.29-11.73-8.29-7.68,7.71-12.12,7.59S323,340.85,323,340.85s-6.76,7.73-12.11,7.59v-.05c-4.51-.12-11.74-8.28-11.74-8.28s-7.9,7.7-12.11,7.59-11.75-8.29-11.75-8.29-7.67,7.71-12.11,7.59-11.74-8.29-11.74-8.29-6.76,7.74-12.11,7.59"/><path class="cls-14" d="M382.83,335.68c-4.51-.13-11.74-8.29-11.74-8.29S363.2,335.1,359,335s-11.74-8.29-11.74-8.29-7.67,7.71-12.11,7.59S323.38,326,323.38,326s-6.76,7.73-12.11,7.58v0c-4.51-.13-11.74-8.29-11.74-8.29s-7.89,7.71-12.11,7.59-11.74-8.29-11.74-8.29-7.68,7.72-12.12,7.59-11.74-8.28-11.74-8.28-6.76,7.73-12.11,7.58"/><circle class="cls-9" cx="912.71" cy="356.46" r="3.53"/><circle class="cls-9" cx="924.37" cy="356.55" r="3.53"/><circle class="cls-9" cx="936.04" cy="356.64" r="3.53"/><circle class="cls-9" cx="912.78" cy="346.39" r="3.53"/><circle class="cls-9" cx="924.45" cy="346.48" r="3.53"/><circle class="cls-9" cx="936.11" cy="346.56" r="3.53"/><circle class="cls-9" cx="912.86" cy="336.78" r="3.53"/><circle class="cls-9" cx="924.52" cy="336.87" r="3.53"/><circle class="cls-9" cx="936.19" cy="336.96" r="3.53"/><circle class="cls-9" cx="912.94" cy="326.25" r="3.53"/><circle class="cls-9" cx="924.6" cy="326.34" r="3.53"/><circle class="cls-9" cx="936.27" cy="326.43" r="3.53"/><circle class="cls-9" cx="913.02" cy="315.98" r="3.53"/><circle class="cls-9" cx="924.68" cy="316.07" r="3.53"/><circle class="cls-9" cx="936.34" cy="316.16" r="3.53"/><circle class="cls-9" cx="913.09" cy="305.71" r="3.53"/><circle class="cls-9" cx="924.76" cy="305.8" r="3.53"/><circle class="cls-9" cx="936.42" cy="305.89" r="3.53"/><circle class="cls-9" cx="913.17" cy="295.64" r="3.53"/><circle class="cls-9" cx="924.84" cy="295.73" r="3.53"/><circle class="cls-9" cx="936.5" cy="295.82" r="3.53"/><circle class="cls-9" cx="913.25" cy="285.44" r="3.53"/><circle class="cls-9" cx="924.91" cy="285.53" r="3.53"/><circle class="cls-9" cx="936.58" cy="285.62" r="3.53"/><circle class="cls-9" cx="913.33" cy="274.91" r="3.53"/><circle class="cls-9" cx="924.99" cy="275" r="3.53"/><circle class="cls-9" cx="936.66" cy="275.09" r="3.53"/><circle class="cls-9" cx="913.41" cy="264.64" r="3.53"/><circle class="cls-9" cx="925.07" cy="264.73" r="3.53"/><circle class="cls-9" cx="936.74" cy="264.82" r="3.53"/><circle class="cls-9" cx="913.49" cy="254.37" r="3.53"/><circle class="cls-9" cx="925.15" cy="254.46" r="3.53"/><circle class="cls-9" cx="936.81" cy="254.55" r="3.53"/><circle class="cls-9" cx="913.56" cy="244.3" r="3.53"/><circle class="cls-9" cx="925.23" cy="244.38" r="3.53"/><circle class="cls-9" cx="936.89" cy="244.47" r="3.53"/><circle class="cls-9" cx="913.64" cy="234.69" r="3.53"/><circle class="cls-9" cx="925.3" cy="234.78" r="3.53"/><circle class="cls-9" cx="936.96" cy="234.87" r="3.53"/><circle class="cls-9" cx="913.72" cy="224.16" r="3.53"/><circle class="cls-9" cx="925.38" cy="224.25" r="3.53"/><circle class="cls-9" cx="937.04" cy="224.34" r="3.53"/><circle class="cls-9" cx="913.79" cy="213.89" r="3.53"/><circle class="cls-9" cx="925.46" cy="213.98" r="3.53"/><circle class="cls-9" cx="937.12" cy="214.07" r="3.53"/><circle class="cls-9" cx="913.87" cy="203.62" r="3.53"/><circle class="cls-9" cx="925.54" cy="203.71" r="3.53"/><circle class="cls-9" cx="937.2" cy="203.8" r="3.53"/><circle class="cls-9" cx="913.95" cy="193.55" r="3.53"/><circle class="cls-9" cx="925.61" cy="193.64" r="3.53"/><circle class="cls-9" cx="937.28" cy="193.72" r="3.53"/><path class="cls-13" d="M696.07,384.32a29.43,29.43,0,0,1,58.85.2"/><path class="cls-13" d="M749.19,384.32a29.43,29.43,0,0,1,58.85.2"/><path class="cls-13" d="M802.31,384.32a29.43,29.43,0,0,1,58.85.2"/><path class="cls-13" d="M855.44,384.32a29.42,29.42,0,1,1,58.84.2"/><path class="cls-13" d="M908.56,384.32a29.43,29.43,0,0,1,58.85.2"/></g></svg>