<?xml version="1.0" encoding="utf-8"?>
<!-- Generator: Adobe Illustrator 23.0.6, SVG Export Plug-In . SVG Version: 6.00 Build 0)  -->
<svg version="1.1" id="Layer_1" xmlns="http://www.w3.org/2000/svg" xmlns:xlink="http://www.w3.org/1999/xlink" x="0px" y="0px"
	 viewBox="0 0 1000 868" style="enable-background:new 0 0 1000 868;" xml:space="preserve">
<style type="text/css">
	.st0{clip-path:url(#SVGID_2_);}
	.st1{fill:#EC663C;}
	.st2{fill:#F4A74E;}
	.st3{fill:#FAF0D0;}
	.st4{fill:#EF9370;}
	.st5{fill:none;}
</style>
<g>
	<defs>
		<rect id="SVGID_1_" x="-378" y="-434.582" width="1378" height="1302.582"/>
	</defs>
	<clipPath id="SVGID_2_">
		<use xlink:href="#SVGID_1_"  style="overflow:visible;"/>
	</clipPath>
	<g class="st0">
		<g>
			<path class="st1" d="M174.014,771.633c-28.8,22.875-60.899,8.263-69.786,3.427c-0.95-0.517-1.914-1.006-2.889-1.471
				c-2.471-1.179-5.022-2.186-7.646-2.972c-19.124-5.727-40.616-2.435-57.551,10.671c-28.104,21.75-33.165,61.937-11.303,89.954
				c10.971,14.059,26.617,22.273,42.998,24.192c16.314,1.912,33.358-2.42,47.236-13.443l128.986-99.42l-49.489-86.439
				C194.571,696.132,208.443,744.288,174.014,771.633z"/>
			<path class="st2" d="M171.538,793.22c-28.8,22.875-60.899,8.263-69.786,3.427c-0.95-0.517-1.914-1.006-2.889-1.471
				c-2.471-1.179-5.021-2.186-7.646-2.972c-19.124-5.727-40.616-2.435-57.551,10.671c-28.104,21.75-33.165,61.937-11.303,89.954
				c10.971,14.059,26.617,22.273,42.998,24.192c16.314,1.912,33.358-2.42,47.236-13.443l128.986-99.42l-49.489-86.439
				C192.095,717.719,205.967,765.875,171.538,793.22z"/>
			<path class="st1" d="M171.456,816.643c-28.8,22.875-60.899,8.263-69.786,3.427c-0.95-0.517-1.914-1.006-2.889-1.471
				c-2.471-1.179-5.021-2.186-7.646-2.972c-19.124-5.727-40.616-2.435-57.551,10.671c-28.104,21.75-33.165,61.937-11.303,89.954
				c10.971,14.059,26.617,22.273,42.998,24.192c16.314,1.912,33.358-2.42,47.236-13.443l128.986-99.42l-49.489-86.439
				C192.013,741.142,205.885,789.298,171.456,816.643z"/>
			<circle class="st2" cx="257.864" cy="820.844" r="174.491"/>
			<circle class="st3" cx="257.864" cy="820.844" r="158.141"/>
		</g>
		
			<rect x="293.642" y="378.406" transform="matrix(0.6682 -0.744 0.744 0.6682 -231.8612 721.2952)" class="st1" width="798.25" height="484.396"/>
		<g>
			<path class="st2" d="M810.171,799.353c34.963-18.958,66.369-25.987,92.95-26.823c-21.921-15.8-44.343-39.033-62.256-73.304
				c-2.486-4.757-4.747-9.464-6.801-14.116l-45.482,12.576c15.878,24.909,34.171,42.856,52.132,55.801
				c-26.581,0.836-57.988,7.865-92.95,26.824c-109.281,59.257-102.328,153.014-102.328,153.014s24.007,14.69,62.404,18.98
				C707.668,949.704,702.442,857.769,810.171,799.353z"/>
			<path class="st4" d="M707.839,952.305c0.002,0.038,0.004,0.062,0.004,0.062s24.007,14.69,62.403,18.98
				c-0.05-0.773-0.543-9.454,1.617-22.802C747.927,954.019,726.229,954.36,707.839,952.305z"/>
			<path class="st4" d="M937.521,766.924c-2.025,4.39-3.998,8.113-5.719,11.088c0.001,0.001,0.023,0.017,0.023,0.017
				s-0.202,7.042-2.566,18.387c12.888-3.01,25.015-4.492,36.269-4.845C956.153,784.814,946.688,776.683,937.521,766.924z"/>
			<path class="st4" d="M872.578,818.395c20.16-10.932,39.129-17.88,56.681-21.979c2.364-11.345,2.566-18.387,2.566-18.387
				s-0.021-0.016-0.023-0.017c1.72-2.975,3.694-6.698,5.719-11.088c-12.266-13.059-23.997-29.043-34.249-48.656
				c-8.575-16.407-14.48-32.22-18.368-47.215l-50.841,14.057c2.055,4.652,4.315,9.359,6.801,14.116
				c17.913,34.272,40.335,57.504,62.256,73.304c-26.581,0.836-57.987,7.865-92.95,26.823
				c-107.729,58.416-102.502,150.352-102.332,152.952c18.391,2.055,40.088,1.714,64.024-3.759
				C776.965,917.016,796.892,859.436,872.578,818.395z"/>
			<path class="st2" d="M770.246,971.347c0.003,0.037,0.004,0.062,0.004,0.062s24.007,14.69,62.403,18.98
				c-0.051-0.773-0.543-9.453,1.617-22.802C810.334,973.061,788.637,973.402,770.246,971.347z"/>
			<path class="st2" d="M994.233,797.072c0,0-0.202,7.042-2.566,18.387c12.887-3.009,25.015-4.491,36.269-4.845
				c-9.375-6.758-18.84-14.889-28.007-24.647c-2.025,4.39-3.999,8.113-5.719,11.088
				C994.212,797.056,994.233,797.072,994.233,797.072z"/>
			<path class="st2" d="M856.605,908.549c-8.681,6.573-18.352,12.87-29.151,18.726c-19.454,10.549-38.118,17.275-55.591,21.271
				c-2.16,13.348-1.668,22.029-1.617,22.802c18.391,2.055,40.088,1.714,64.025-3.76
				C836.732,952.376,842.644,931.107,856.605,908.549z"/>
			<path class="st2" d="M965.68,737.31c-5.697-10.901-10.211-21.537-13.745-31.849c-1.008,26.518-7.961,47.474-14.414,61.464
				c9.167,9.759,18.632,17.89,28.007,24.648c-11.254,0.354-23.382,1.836-36.269,4.845c-3.092,14.837-9.898,37.044-24.816,60.56
				c9.014-6.791,19.137-13.355,30.543-19.539c20.16-10.932,39.129-17.88,56.681-21.979c2.364-11.345,2.566-18.387,2.566-18.387
				s-0.021-0.016-0.023-0.017c1.72-2.975,3.695-6.698,5.719-11.088C987.663,772.908,975.932,756.924,965.68,737.31z"/>
			<path class="st1" d="M951.935,705.46c-6.094-17.78-9.248-34.582-10.413-50.063l-56.618,15.656
				c3.888,14.996,9.793,30.809,18.368,47.215c10.252,19.614,21.983,35.598,34.249,48.656
				C943.973,752.935,950.927,731.978,951.935,705.46z"/>
			<path class="st2" d="M929.259,796.417c-17.552,4.099-36.521,11.047-56.681,21.979c-75.686,41.041-95.613,98.621-100.715,130.15
				c17.473-3.996,36.137-10.722,55.591-21.271c10.798-5.856,20.47-12.152,29.151-18.726c10.615-17.152,25.897-35.041,47.838-51.572
				C919.361,833.461,926.167,811.254,929.259,796.417z"/>
			<path class="st4" d="M1119.026,835.139c13.08-22.621,40.753-87.38-5.184-175.269c-9.085-17.382-19.074-31.878-29.453-43.976
				l-40.654,11.241c2.627,4.357,5.199,8.909,7.7,13.693c45.937,87.888,18.264,152.648,5.183,175.268
				c0.002,0.001,0.023,0.017,0.023,0.017s-2.628,94.074-104.371,149.245c-46.104,25-87.8,28.585-119.616,25.03
				c0.002,0.038,0.004,0.062,0.004,0.062s80.275,49.121,182.019-6.05c101.744-55.17,104.372-149.245,104.372-149.245
				S1119.027,835.14,1119.026,835.139z"/>
			<path class="st1" d="M1056.641,816.114c0,0-0.021-0.016-0.023-0.017c13.08-22.62,40.753-87.38-5.183-175.268
				c-2.5-4.784-5.073-9.336-7.7-13.693l-46.144,12.759c28.79,67.511,14.629,119.423,2.339,146.073
				c9.167,9.759,18.632,17.89,28.007,24.647c-11.254,0.354-23.382,1.836-36.269,4.845c-6.284,30.154-27.877,90.77-101.805,130.858
				c-19.454,10.549-38.118,17.275-55.591,21.271c-2.16,13.348-1.668,22.029-1.617,22.802c31.816,3.555,73.512-0.03,119.616-25.03
				C1054.013,910.188,1056.641,816.114,1056.641,816.114z"/>
			<path class="st4" d="M904.443,856.977c-10.971,17.295-26.332,35.288-47.838,51.572c-13.961,22.558-19.873,43.827-22.334,59.038
				c17.473-3.995,36.137-10.722,55.591-21.271c73.928-40.087,95.521-100.704,101.805-130.858
				c-17.552,4.099-36.521,11.047-56.681,21.979C923.58,843.622,913.457,850.186,904.443,856.977z"/>
			<path class="st4" d="M951.935,705.46c3.535,10.312,8.048,20.949,13.745,31.849c10.252,19.614,21.983,35.598,34.249,48.657
				c12.29-26.649,26.451-78.561-2.339-146.073l-51.192,14.154C951.084,672.873,952.519,690.098,951.935,705.46z"/>
			<path class="st4" d="M856.605,908.549c21.506-16.284,36.867-34.277,47.838-51.572
				C882.502,873.507,867.22,891.397,856.605,908.549z"/>
			<path class="st2" d="M951.935,705.46c0.584-15.362-0.851-32.588-5.536-51.412l-4.877,1.348
				C942.686,670.879,945.84,687.68,951.935,705.46z"/>
			<path class="st5" d="M775.184,498.093c0,0,32.805-1.923,71.523,19.264c12.381,0.894,36.02,4.602,62.407,19.042
				c12.381,0.893,36.021,4.602,62.408,19.042c20.095,1.451,69.844,10.306,112.866,60.451l67.626-18.699L898.087,436.247
				l-278.828,30.423l96.211,251.232l73.112-20.215c-3.501-5.492-6.888-11.311-10.125-17.503
				C724.845,577.609,775.184,498.093,775.184,498.093z"/>
			<path class="st4" d="M837.592,517.135c0,0,3.33-0.195,9.116,0.223c-38.719-21.188-71.523-19.264-71.523-19.264
				s-50.339,79.517,3.273,182.09c3.236,6.192,6.624,12.011,10.125,17.503l45.482-12.576
				C791.815,589.448,837.592,517.135,837.592,517.135z"/>
			<path class="st4" d="M900,536.177c0,0,3.33-0.196,9.115,0.223c-26.387-14.44-50.026-18.148-62.407-19.042
				c14.694,8.042,30.237,19.416,45.165,35.485C896.241,542.124,900,536.177,900,536.177z"/>
			<path class="st1" d="M891.872,552.842c-14.928-16.069-30.471-27.443-45.165-35.485c-5.786-0.418-9.116-0.223-9.116-0.223
				s-45.776,72.313-3.528,167.975l50.841-14.057C871.127,617.908,882.809,575.082,891.872,552.842z"/>
			<path class="st2" d="M962.407,555.219c0,0,3.33-0.195,9.116,0.223c-26.387-14.44-50.027-18.149-62.408-19.042
				c14.694,8.041,30.237,19.416,45.165,35.485C958.648,561.166,962.407,555.219,962.407,555.219z"/>
			<path class="st2" d="M891.872,552.842c12.271,13.209,24.126,29.582,34.747,49.901c6.016,11.51,10.742,22.612,14.431,33.286
				c0.749-27.865,7.509-50.106,13.23-64.145c-14.928-16.069-30.471-27.444-45.165-35.485c-5.786-0.418-9.115-0.223-9.115-0.223
				S896.241,542.124,891.872,552.842z"/>
			<path class="st4" d="M941.05,636.029c-3.689-10.674-8.415-21.776-14.431-33.286c-10.62-20.319-22.475-36.692-34.747-49.901
				c-9.064,22.24-20.746,65.066-6.969,118.21l56.618-15.656C941.017,648.683,940.884,642.218,941.05,636.029z"/>
			<path class="st1" d="M971.523,555.442c23.929,13.094,50.111,35.026,72.212,71.693l40.654-11.241
				C1041.367,565.748,991.618,556.893,971.523,555.442z"/>
			<path class="st4" d="M971.523,555.442c-5.786-0.418-9.116-0.223-9.116-0.223s-3.759,5.946-8.127,16.665
				c12.271,13.209,24.126,29.582,34.746,49.901c3.218,6.156,6.038,12.186,8.564,18.109l46.144-12.759
				C1021.634,590.468,995.452,568.536,971.523,555.442z"/>
			<path class="st1" d="M954.28,571.885c-5.721,14.039-12.481,36.28-13.23,64.145c2.128,6.158,3.891,12.162,5.349,18.019
				l51.192-14.154c-2.526-5.923-5.346-11.952-8.564-18.109C978.406,601.467,966.551,585.094,954.28,571.885z"/>
			<path class="st1" d="M946.399,654.048c-1.458-5.857-3.221-11.861-5.349-18.019c-0.166,6.188-0.033,12.654,0.472,19.367
				L946.399,654.048z"/>
		</g>
		<g>
			<path class="st1" d="M280.866,825.256c34.963-18.958,66.369-25.987,92.95-26.823c-21.921-15.8-44.343-39.033-62.256-73.304
				c-2.486-4.757-4.747-9.464-6.801-14.116l-45.482,12.576c15.878,24.909,34.171,42.856,52.132,55.801
				c-26.581,0.836-57.988,7.865-92.95,26.824c-109.281,59.257-102.328,153.014-102.328,153.014s24.007,14.69,62.404,18.98
				C178.364,975.607,173.138,883.672,280.866,825.256z"/>
			<path class="st4" d="M178.534,978.208c0.002,0.038,0.004,0.062,0.004,0.062s24.007,14.69,62.403,18.98
				c-0.05-0.773-0.543-9.454,1.617-22.802C218.622,979.922,196.925,980.263,178.534,978.208z"/>
			<path class="st4" d="M408.217,792.827c-2.025,4.39-3.998,8.113-5.719,11.088c0.001,0.001,0.023,0.017,0.023,0.017
				s-0.202,7.042-2.566,18.387c12.888-3.01,25.015-4.492,36.269-4.845C426.849,810.717,417.384,802.586,408.217,792.827z"/>
			<path class="st4" d="M343.274,844.298c20.16-10.932,39.129-17.88,56.681-21.979c2.364-11.346,2.566-18.387,2.566-18.387
				s-0.021-0.016-0.023-0.017c1.72-2.975,3.694-6.698,5.719-11.088c-12.266-13.059-23.997-29.043-34.249-48.656
				c-8.575-16.407-14.48-32.22-18.368-47.215l-50.841,14.057c2.055,4.652,4.315,9.359,6.801,14.116
				c17.913,34.272,40.335,57.504,62.256,73.304c-26.581,0.836-57.987,7.865-92.95,26.823
				c-107.729,58.416-102.502,150.352-102.332,152.952c18.391,2.055,40.088,1.714,64.024-3.759
				C247.661,942.919,267.588,885.339,343.274,844.298z"/>
			<path class="st2" d="M240.942,997.25c0.003,0.037,0.004,0.062,0.004,0.062s24.007,14.69,62.403,18.98
				c-0.051-0.773-0.543-9.453,1.617-22.802C281.03,998.964,259.333,999.305,240.942,997.25z"/>
			<path class="st2" d="M464.929,822.975c0,0-0.202,7.042-2.566,18.387c12.887-3.009,25.015-4.491,36.269-4.845
				c-9.375-6.758-18.84-14.889-28.007-24.647c-2.025,4.39-3.999,8.113-5.719,11.088
				C464.908,822.959,464.929,822.975,464.929,822.975z"/>
			<path class="st2" d="M327.301,934.452c-8.681,6.573-18.353,12.87-29.151,18.726c-19.454,10.549-38.118,17.275-55.591,21.271
				c-2.16,13.348-1.668,22.029-1.617,22.802c18.391,2.055,40.088,1.714,64.025-3.76C307.428,978.279,313.339,957.01,327.301,934.452
				z"/>
			<path class="st2" d="M436.376,763.213c-5.697-10.901-10.211-21.537-13.745-31.849c-1.008,26.518-7.961,47.474-14.414,61.464
				c9.167,9.759,18.632,17.89,28.007,24.648c-11.254,0.354-23.382,1.836-36.269,4.845c-3.092,14.837-9.898,37.044-24.816,60.56
				c9.014-6.791,19.137-13.355,30.543-19.539c20.16-10.932,39.129-17.88,56.681-21.979c2.364-11.345,2.566-18.387,2.566-18.387
				s-0.021-0.016-0.023-0.017c1.72-2.975,3.695-6.698,5.719-11.088C458.359,798.811,446.627,782.827,436.376,763.213z"/>
			<path class="st2" d="M422.63,731.363c-6.094-17.78-9.249-34.582-10.413-50.063L355.6,696.955
				c3.888,14.996,9.793,30.809,18.368,47.215c10.252,19.614,21.983,35.598,34.249,48.656
				C414.669,778.838,421.622,757.881,422.63,731.363z"/>
			<path class="st2" d="M399.955,822.32c-17.552,4.099-36.521,11.047-56.681,21.979c-75.686,41.041-95.613,98.621-100.715,130.15
				c17.473-3.996,36.137-10.722,55.591-21.271c10.798-5.856,20.47-12.152,29.151-18.726c10.615-17.152,25.897-35.041,47.838-51.572
				C390.057,859.364,396.863,837.157,399.955,822.32z"/>
			<path class="st4" d="M589.721,861.042c13.08-22.621,40.753-87.38-5.184-175.269c-9.085-17.382-19.074-31.878-29.453-43.976
				l-40.654,11.241c2.627,4.358,5.199,8.909,7.7,13.693c45.937,87.888,18.264,152.648,5.184,175.268
				c0.002,0.001,0.023,0.017,0.023,0.017s-2.628,94.074-104.371,149.245c-46.104,25-87.8,28.585-119.616,25.03
				c0.002,0.038,0.004,0.062,0.004,0.062s80.275,49.121,182.019-6.05c101.744-55.17,104.372-149.245,104.372-149.245
				S589.723,861.043,589.721,861.042z"/>
			<path class="st4" d="M527.336,842.017c0,0-0.021-0.016-0.023-0.017c13.08-22.62,40.753-87.38-5.184-175.268
				c-2.5-4.784-5.073-9.336-7.7-13.693l-46.144,12.759c28.79,67.511,14.629,119.423,2.339,146.073
				c9.167,9.759,18.632,17.89,28.007,24.647c-11.254,0.354-23.382,1.836-36.269,4.845c-6.284,30.154-27.877,90.77-101.805,130.858
				c-19.454,10.549-38.118,17.275-55.591,21.271c-2.16,13.348-1.668,22.029-1.617,22.802c31.816,3.555,73.512-0.03,119.616-25.03
				C524.709,936.091,527.336,842.017,527.336,842.017z"/>
			<path class="st4" d="M375.139,882.88c-10.971,17.295-26.332,35.288-47.838,51.572c-13.961,22.558-19.873,43.827-22.334,59.038
				c17.473-3.995,36.137-10.722,55.591-21.271c73.928-40.087,95.521-100.704,101.805-130.858
				c-17.552,4.099-36.521,11.047-56.681,21.979C394.276,869.525,384.152,876.089,375.139,882.88z"/>
			<path class="st4" d="M422.63,731.363c3.535,10.312,8.048,20.949,13.745,31.849c10.252,19.614,21.983,35.598,34.249,48.657
				c12.29-26.649,26.451-78.561-2.339-146.073l-51.192,14.154C421.779,698.776,423.215,716.001,422.63,731.363z"/>
			<path class="st4" d="M327.301,934.452c21.506-16.284,36.867-34.277,47.838-51.572C353.198,899.41,337.916,917.3,327.301,934.452z
				"/>
			<path class="st2" d="M422.63,731.363c0.584-15.362-0.851-32.588-5.536-51.412l-4.877,1.348
				C413.382,696.782,416.536,713.583,422.63,731.363z"/>
			<path class="st5" d="M245.88,523.996c0,0,32.805-1.923,71.523,19.264c12.381,0.894,36.02,4.602,62.407,19.042
				c12.381,0.893,36.021,4.602,62.408,19.042c20.095,1.451,69.844,10.306,112.866,60.451l67.626-18.699L368.782,462.15
				L89.954,492.573l96.211,251.232l73.111-20.215c-3.501-5.492-6.888-11.311-10.125-17.503
				C195.54,603.512,245.88,523.996,245.88,523.996z"/>
			<path class="st4" d="M308.287,543.038c0,0,3.33-0.195,9.116,0.223c-38.719-21.188-71.523-19.264-71.523-19.264
				s-50.339,79.517,3.272,182.09c3.236,6.192,6.624,12.011,10.125,17.503l45.482-12.576
				C262.511,615.351,308.287,543.038,308.287,543.038z"/>
			<path class="st4" d="M370.695,562.08c0,0,3.33-0.196,9.115,0.223c-26.387-14.44-50.026-18.148-62.407-19.042
				c14.694,8.042,30.237,19.416,45.165,35.485C366.936,568.027,370.695,562.08,370.695,562.08z"/>
			<path class="st1" d="M362.568,578.745c-14.928-16.069-30.471-27.443-45.165-35.485c-5.786-0.418-9.116-0.223-9.116-0.223
				s-45.776,72.313-3.528,167.975l50.841-14.057C341.822,643.811,353.504,600.985,362.568,578.745z"/>
			<path class="st2" d="M433.103,581.122c0,0,3.33-0.195,9.116,0.223c-26.387-14.44-50.027-18.149-62.408-19.042
				c14.694,8.041,30.237,19.416,45.165,35.485C429.344,587.069,433.103,581.122,433.103,581.122z"/>
			<path class="st2" d="M362.568,578.745c12.271,13.209,24.126,29.582,34.746,49.901c6.016,11.51,10.742,22.612,14.431,33.286
				c0.749-27.865,7.509-50.106,13.23-64.145c-14.928-16.069-30.471-27.444-45.165-35.485c-5.786-0.418-9.115-0.223-9.115-0.223
				S366.936,568.027,362.568,578.745z"/>
			<path class="st4" d="M411.745,661.932c-3.689-10.674-8.415-21.776-14.431-33.286c-10.62-20.319-22.475-36.692-34.746-49.901
				c-9.064,22.24-20.746,65.066-6.969,118.21l56.618-15.656C411.712,674.586,411.579,668.121,411.745,661.932z"/>
			<path class="st4" d="M442.219,581.345c23.929,13.094,50.111,35.026,72.212,71.693l40.654-11.241
				C512.063,591.651,462.314,582.796,442.219,581.345z"/>
			<path class="st4" d="M442.219,581.345c-5.786-0.418-9.116-0.223-9.116-0.223s-3.759,5.946-8.127,16.665
				c12.271,13.209,24.126,29.582,34.746,49.901c3.218,6.156,6.038,12.186,8.564,18.109l46.144-12.759
				C492.33,616.371,466.147,594.439,442.219,581.345z"/>
			<path class="st2" d="M424.976,597.788c-5.721,14.039-12.481,36.28-13.23,64.145c2.128,6.158,3.891,12.162,5.349,18.019
				l51.192-14.154c-2.526-5.923-5.346-11.952-8.564-18.109C449.102,627.37,437.247,610.997,424.976,597.788z"/>
			<path class="st4" d="M417.094,679.951c-1.458-5.857-3.221-11.861-5.349-18.019c-0.166,6.188-0.033,12.654,0.472,19.367
				L417.094,679.951z"/>
		</g>
		<g>
			<path class="st1" d="M391.219,602.429c33.879,68.853-10.131,127.825-23.929,143.8c-1.474,1.707-2.899,3.456-4.279,5.238
				c-3.498,4.516-6.682,9.269-9.448,14.273c-20.148,36.453-22.958,81.731-3.739,122.065
				c31.894,66.935,111.588,95.057,178.394,62.895c33.523-16.139,57.202-44.401,68.373-76.95
				c11.125-32.416,9.844-69.083-6.482-102.263l-145.56-307.026l-198.158,62.607C246.391,527.068,350.719,520.119,391.219,602.429z"
				/>
			<path class="st2" d="M434.134,617.039c33.879,68.853-10.131,127.825-23.929,143.8c-1.474,1.707-2.899,3.456-4.279,5.238
				c-3.498,4.516-6.682,9.269-9.448,14.273c-20.148,36.453-22.958,81.731-3.739,122.065
				c31.894,66.935,111.588,95.057,178.394,62.895c33.523-16.139,57.202-44.401,68.373-76.95
				c11.125-32.416,9.844-69.083-6.482-102.263l-145.56-307.025l-198.158,62.607C289.306,541.678,393.634,534.729,434.134,617.039z"
				/>
			<path class="st1" d="M481.853,627.584c33.879,68.853-10.131,127.825-23.929,143.8c-1.474,1.707-2.899,3.456-4.279,5.238
				c-3.498,4.516-6.682,9.269-9.448,14.273c-20.148,36.453-22.958,81.731-3.739,122.065
				c31.894,66.935,111.588,95.057,178.394,62.895c33.523-16.139,57.202-44.401,68.373-76.95
				c11.125-32.416,9.844-69.083-6.482-102.263l-145.56-307.026l-198.158,62.607C337.025,552.223,441.353,545.273,481.853,627.584z"
				/>
			<circle class="st2" cx="710.501" cy="375.46" r="364.061"/>
			<circle class="st3" cx="710.501" cy="375.46" r="329.947"/>
		</g>
		<g>
			<path class="st1" d="M652.569,880.212c-5.84-35.341,21.789-55.748,30.112-61.023c0.889-0.564,1.762-1.153,2.62-1.763
				c2.173-1.545,4.238-3.24,6.149-5.102c13.926-13.567,21.296-33.419,18.155-54.037c-5.212-34.216-37.024-57.544-71.218-52.195
				c-17.159,2.684-31.556,12.115-40.943,25.15c-9.349,12.982-13.728,29.539-10.914,46.569l23.578,156.845l96.998-1.214
				C707.106,933.444,659.55,922.46,652.569,880.212z"/>
			<path class="st2" d="M635.367,867.888c-5.84-35.341,21.789-55.748,30.112-61.023c0.889-0.564,1.762-1.153,2.62-1.763
				c2.173-1.546,4.238-3.24,6.149-5.102c13.926-13.567,21.296-33.419,18.155-54.037c-5.212-34.216-37.024-57.544-71.218-52.195
				c-17.159,2.684-31.556,12.115-40.943,25.15c-9.349,12.982-13.728,29.539-10.914,46.569l23.578,156.845l96.998-1.214
				C689.903,921.12,642.348,910.136,635.367,867.888z"/>
			<path class="st1" d="M615.469,856.732c-5.84-35.341,21.789-55.748,30.112-61.023c0.889-0.564,1.762-1.153,2.62-1.763
				c2.173-1.545,4.238-3.239,6.149-5.102c13.926-13.567,21.296-33.419,18.155-54.037c-5.212-34.216-37.024-57.544-71.218-52.195
				c-17.159,2.684-31.556,12.115-40.943,25.15c-9.349,12.982-13.728,29.539-10.914,46.569l23.578,156.845l96.998-1.214
				C670.005,909.964,622.449,898.98,615.469,856.732z"/>
			<circle class="st2" cx="479.253" cy="938.51" r="169.94"/>
			<circle class="st3" cx="479.253" cy="938.51" r="154.016"/>
		</g>
		<g>
			<g>
				<path class="st3" d="M472.605,1119.709c-65.92-39.004-87.818-124.367-48.814-190.287
					c35.51-60.015,109.512-84.253,173.357-57.319l0.199-0.384c46.655,21.07,101.528,3.682,127.634-40.439
					c26.106-44.121,14.93-100.585-25.994-131.339l0.239-0.356c-54.339-42.995-68.717-119.531-33.209-179.542
					c36.109-61.028,112.022-85.066,176.582-55.918l1.88,0.977l2.503,1.481c46.451,20.428,100.768,2.981,126.703-40.85
					c28.2-47.66,78.088-116.919,30.427-145.119l19.595-33.117c65.92,39.004,22.096,131.909-16.908,197.829
					c-36.111,61.031-112.025,85.068-176.582,55.913l-1.878-0.976l-2.501-1.48c-46.456-20.427-100.772-2.979-126.707,40.853
					c-26.106,44.121-14.932,100.584,25.994,131.339l-0.239,0.356c54.341,42.996,68.717,119.531,33.209,179.542
					c-35.51,60.015-109.513,84.257-173.358,57.323l-0.199,0.384c-46.656-21.071-101.528-3.687-127.634,40.435
					c-28.2,47.66-12.366,109.377,35.295,137.578L472.605,1119.709z"/>
			</g>
			<g>
				<path class="st4" d="M506.289,1139.639c-65.92-39.004-87.818-124.367-48.814-190.287
					c35.508-60.011,109.512-84.253,173.356-57.32l0.2-0.384c46.656,21.071,101.53,3.683,127.636-40.438
					c26.106-44.121,14.93-100.585-25.994-131.339l0.239-0.356c-54.339-42.995-68.717-119.531-33.209-179.542
					c36.109-61.028,112.022-85.066,176.582-55.918l1.88,0.977l2.503,1.481c46.451,20.428,100.768,2.981,126.703-40.85
					c28.2-47.66,78.088-116.919,30.427-145.119l-46.127-25.575c65.92,39.004,87.818,124.367,48.814,190.287
					c-36.111,61.031-112.025,85.068-176.582,55.913l-1.878-0.977l-2.501-1.48c-46.456-20.427-100.772-2.979-126.707,40.853
					c-26.106,44.121-14.932,100.584,25.994,131.339l-0.239,0.356c54.341,42.996,68.717,119.531,33.209,179.542
					c-35.51,60.015-109.515,84.256-173.359,57.322l-0.2,0.384c-46.656-21.071-101.526-3.686-127.632,40.436
					c-28.2,47.66-12.366,109.377,35.295,137.578L506.289,1139.639z"/>
			</g>
			<g>
				<path class="st2" d="M539.972,1159.569c-65.92-39.004-87.818-124.367-48.814-190.287
					c35.508-60.011,109.512-84.253,173.356-57.32l0.2-0.384c46.656,21.071,101.53,3.683,127.636-40.438
					s14.93-100.585-25.994-131.339l0.239-0.356c-54.341-42.991-68.719-119.528-33.209-179.542
					c36.109-61.028,112.022-85.066,176.582-55.918l1.88,0.977l2.503,1.481c46.451,20.428,100.768,2.981,126.703-40.85
					c28.2-47.66,12.366-109.377-35.295-137.578l19.595-33.117c65.92,39.004,87.818,124.367,48.813,190.287
					c-36.111,61.031-112.025,85.068-176.582,55.913l-1.878-0.976l-2.501-1.48c-46.456-20.427-100.772-2.979-126.707,40.853
					c-26.106,44.121-14.932,100.584,25.994,131.339l-0.239,0.356c54.341,42.996,68.717,119.531,33.209,179.542
					c-35.51,60.015-109.514,84.256-173.359,57.322l-0.199,0.384c-46.656-21.071-101.526-3.686-127.632,40.436
					c-28.2,47.66-12.366,109.377,35.295,137.578L539.972,1159.569z"/>
			</g>
			<g>
				<path class="st1" d="M572.887,1180.794c-65.92-39.004-87.816-124.366-48.812-190.286c35.51-60.015,109.511-84.254,173.356-57.32
					l0.2-0.384c46.656,21.071,101.528,3.682,127.634-40.439s14.932-100.584-25.994-131.339l0.239-0.356
					c-54.341-42.996-68.717-119.527-33.207-179.541c36.109-61.028,112.022-85.066,176.582-55.918l1.88,0.977l2.503,1.481
					c46.451,20.428,100.768,2.981,126.703-40.85c28.2-47.66,12.366-109.377-35.295-137.578l19.595-33.117
					c65.92,39.004,87.818,124.367,48.814,190.287c-36.112,61.031-112.026,85.068-176.582,55.913l-1.878-0.976l-2.503-1.481
					c-46.454-20.426-100.77-2.978-126.705,40.854c-26.106,44.121-14.932,100.584,25.994,131.339l-0.239,0.356
					c54.341,42.996,68.717,119.527,33.207,179.541c-35.51,60.015-109.513,84.257-173.358,57.323l-0.2,0.384
					c-46.656-21.071-101.526-3.686-127.632,40.436c-28.2,47.66-12.366,109.377,35.293,137.577L572.887,1180.794z"/>
			</g>
		</g>
	</g>
</g>
</svg>
