<svg id="Layer_1" data-name="Layer 1" xmlns="http://www.w3.org/2000/svg" viewBox="0 0 1000 385"><defs><style>.cls-1{fill:#fff;stroke:#000;}.cls-1,.cls-9{stroke-miterlimit:10;}.cls-2{fill:#ec663c;}.cls-3{fill:#66a279;}.cls-4{fill:#f4a74e;}.cls-5{fill:#ef9370;}.cls-6{fill:#6abea3;}.cls-7{fill:#c5e2e5;}.cls-8{fill:#faf0d0;}.cls-10,.cls-9{fill:#092745;}.cls-9{stroke:#c5dae5;stroke-width:2.5px;}</style></defs><title>background-mountains</title><path class="cls-1" d="M394.7,249.21a129.88,129.88,0,0,1,39.92-.91,93.19,93.19,0,0,0-39.92.91Z" transform="translate(1)"/><path class="cls-1" d="M433.82,211.94a93.19,93.19,0,0,0-39.92.91,129.88,129.88,0,0,1,39.92-.91Z" transform="translate(1)"/><path class="cls-1" d="M976,384.33h1.74c-.39-.49-.77-1-1.15-1.48Z" transform="translate(1)"/><polygon class="cls-1" points="999.5 384.5 999.5 384.33 998.42 384.33 980.88 384.33 978.76 384.33 977.02 384.33 968.4 384.33 915.28 384.33 910.26 384.33 862.16 384.33 857.14 384.33 824.71 384.33 809.04 384.33 804.01 384.33 755.91 384.33 750.89 384.33 741.59 384.33 722.83 384.33 698.69 384.33 697.77 384.33 690.51 384.33 585.67 384.33 575.89 384.33 554.95 384.33 534.59 384.33 459.38 384.33 389.61 384.33 365.71 384.33 346.02 384.33 273.88 384.33 241.56 384.33 182.91 384.33 110.32 384.33 64.88 384.33 24.84 384.33 0.5 384.33 0.5 384.5 999.5 384.5"/><path class="cls-1" d="M11.1,379.91a3.7,3.7,0,0,1-1.95-5.43l29.91-48.6a76.8,76.8,0,0,1,67.2-108.61V148.08a42,42,0,1,1,.18,0h-.18v69.19c.9,0,1.8-.07,2.71-.07a76.49,76.49,0,0,1,51,19.42l19.14-29.41a5.54,5.54,0,0,1,10,1.47l12.56,42.89,9.59-64.42a9.8,9.8,0,0,1,17.38-4.65l64.47,81.34a129.18,129.18,0,0,1,206-59.11c34.94-10.83,34.33-25.21,44.78-44.81,9.16-17.18,25.19-14,25.19-14h20.81a99.11,99.11,0,0,1-.77-11.76A97.78,97.78,0,0,1,759.49,68.54C775.39,58.91,777,47,785,32c9.15-17.18,25.18-14,25.18-14h38.74l73.79-.08s25.65-2.45,42.14,11c4.94,4,17.94,35.45,33.7,78V.5H-.5V384.33H23.85Zm274.52-249.7a30.56,30.56,0,1,1-30.56,30.56A30.56,30.56,0,0,1,285.62,130.21Z" transform="translate(1)"/><path class="cls-2" d="M998.5,316.35l.24.41V107.59l-.24-.65Z" transform="translate(1)"/><path class="cls-2" d="M875.78,202.22a93.38,93.38,0,0,0-39.8.87,130.6,130.6,0,0,1,39.8-.87Z" transform="translate(1)"/><path class="cls-2" d="M779.62,165.65c3.7,6.13,5.82,13.27,8.3,19.61a129.45,129.45,0,0,1,147.64,5.39,3.51,3.51,0,0,1,5.25,3.1,3.31,3.31,0,0,1-.15.95,128.57,128.57,0,0,1,45.14,82l.15,2,.06,2.71a92.89,92.89,0,0,0,12.49,35V106.94c-15.76-42.55-28.76-74-33.7-78-16.49-13.49-42.14-11-42.14-11L848.87,18H810.13s-16-3.17-25.18,14c-8,15-9.56,26.92-25.46,36.55a97.24,97.24,0,0,1,20.13,97.11Zm78.92-85.34a4.37,4.37,0,1,1-4.37,4.37A4.38,4.38,0,0,1,858.54,80.31Zm-13,45.24a12.67,12.67,0,0,1,12.67-12.67v-3.54H845.51a12.68,12.68,0,1,1,25.35,0H858.18v3.54a12.68,12.68,0,0,1,12.68,12.67H858.18v4.1a12.68,12.68,0,0,1,12.68,12.68H858.18v0H845.51a12.68,12.68,0,0,1,12.67-12.68v-4.1Z" transform="translate(1)"/><path class="cls-3" d="M543.4,283.17l.4,0a93.33,93.33,0,0,0,182.47,12.41l-26-20.84s-1.13-18.17-1.19-43.48a97.17,97.17,0,0,1-109.15-85.32H569.07s-16-3.17-25.19,14c-10.45,19.6-9.84,34-44.78,44.81A128.52,128.52,0,0,1,543.4,283.17Z" transform="translate(1)"/><path class="cls-3" d="M729.63,279.07a128.7,128.7,0,0,1,58.29-93.81c-2.48-6.34-4.6-13.48-8.3-19.61A97.88,97.88,0,0,1,699,231.23c.06,25.31,1.19,43.48,1.19,43.48l26,20.84a94,94,0,0,0,3-16.49Z" transform="translate(1)"/><path class="cls-3" d="M836.78,239.45a130.88,130.88,0,0,1,19.85-2,129.1,129.1,0,0,1,20,1.1,93.17,93.17,0,0,0-39.8.86Z" transform="translate(1)"/><path class="cls-4" d="M704.09,146.44c5-34.35,14.68-63.49,32.77-68.66,9.88-2.82,17.11-5.89,22.63-9.24a97.78,97.78,0,0,0-170.38,65.61,99.11,99.11,0,0,0,.77,11.76h17.93Z" transform="translate(1)"/><path class="cls-5" d="M704.09,146.44l26.64.14s25.65-2.45,42.14,11a30.73,30.73,0,0,1,6.75,8,97.24,97.24,0,0,0-20.13-97.11C754,71.89,746.74,75,736.86,77.78,718.77,83,709.11,112.09,704.09,146.44Z" transform="translate(1)"/><path class="cls-6" d="M687,232.05a97.47,97.47,0,0,0,12-.82c0-24.85.94-56.57,5.06-84.79l-96.28-.53H589.88A97.86,97.86,0,0,0,687,232.05Z" transform="translate(1)"/><path class="cls-6" d="M779.62,165.65a30.73,30.73,0,0,0-6.75-8c-16.49-13.5-42.14-11-42.14-11l-26.64-.14C700,174.66,699,206.38,699,231.23A97.88,97.88,0,0,0,779.62,165.65Z" transform="translate(1)"/><path class="cls-7" d="M393.9,212.85a93.19,93.19,0,0,1,39.92-.91,128.43,128.43,0,0,1,42.46,13.36c5.05-10.19,11.44-17.28,19.51-19.59,1.14-.32,2.24-.65,3.31-1a129.18,129.18,0,0,0-206,59.11l10.74,13.54A129.38,129.38,0,0,1,393.9,212.85Z" transform="translate(1)"/><path class="cls-7" d="M998.5,351.35l.24.41v-35l-.24-.41Z" transform="translate(1)"/><path class="cls-7" d="M986,278.64l-.15-2a128.57,128.57,0,0,0-45.14-82,3.53,3.53,0,1,1-5.1-4,129.45,129.45,0,0,0-147.64-5.39c3.46,8.82,7.62,16.06,17.77,16.79,7.08.51,18.25.84,30.18,1.06l.11,0a93.38,93.38,0,0,1,39.8-.87c2.71.36,5.38.8,8,1.32h5.83c3.05,0,6.5,1.56,9.74,4.09q5.83,1.94,11.42,4.39a3.53,3.53,0,0,1,6.53,1.89,3.42,3.42,0,0,1-.21,1.11A128.61,128.61,0,0,1,933.57,225a3.53,3.53,0,1,1,3.86,2.87A128.54,128.54,0,0,1,986.6,313l.15,2,.06,2.7a92.94,92.94,0,0,0,11.69,33.64v-35a92.89,92.89,0,0,1-12.49-35Zm-72.1-71.48a3.54,3.54,0,1,1,3.56-3.51A3.53,3.53,0,0,1,913.85,207.16Zm.07-10.08a3.54,3.54,0,1,1,3.56-3.51A3.54,3.54,0,0,1,913.92,197.08Zm11.51,20.44A3.54,3.54,0,1,1,929,214,3.55,3.55,0,0,1,925.43,217.52Zm.08-10.27a3.54,3.54,0,1,1,3.56-3.51A3.55,3.55,0,0,1,925.51,207.25Zm.08-10.08a3.54,3.54,0,1,1,3.56-3.51A3.53,3.53,0,0,1,925.59,197.17Zm11.5,20.43a3.53,3.53,0,1,1,3.57-3.5A3.52,3.52,0,0,1,937.09,217.6Zm.08-10.27a3.53,3.53,0,1,1,3.56-3.5A3.52,3.52,0,0,1,937.17,207.33Z" transform="translate(1)"/><path class="cls-7" d="M716.34,356.46a93,93,0,0,0,13.7-41h.39a133.49,133.49,0,0,1,2.5-14.55l-6.66-5.33A93.33,93.33,0,0,1,543.8,283.14l-.4,0a128.52,128.52,0,0,0-44.3-78.44c-1.07.33-2.17.66-3.31,1-8.07,2.31-14.46,9.4-19.51,19.59a128.73,128.73,0,0,1,67.92,94.23l.4,0a93,93,0,0,0,40.07,64.83H689.51q3.66-2.49,7.06-5.29A29.45,29.45,0,0,1,716.34,356.46Z" transform="translate(1)"/><path class="cls-7" d="M835.87,203.11c-11.93-.22-23.1-.55-30.18-1.06-10.15-.73-14.31-8-17.77-16.79a128.7,128.7,0,0,0-58.29,93.81h-.39a94,94,0,0,1-3,16.49l6.66,5.33A128.87,128.87,0,0,1,835.87,203.11Z" transform="translate(1)"/><path class="cls-7" d="M889.64,203.55h-5.83a128.54,128.54,0,0,1,15.57,4.1C896.14,205.11,892.69,203.55,889.64,203.55Z" transform="translate(1)"/><rect class="cls-8" x="999.5" y="381.2" width="0.24" height="3.13"/><path class="cls-8" d="M995.85,381.2c.51,1.05,1,2.1,1.57,3.13h1.08V381.2Z" transform="translate(1)"/><path class="cls-8" d="M977.15,381.5l-.54,1.35c.38.5.76,1,1.15,1.48h2.12c-.15-.95-.29-1.91-.44-2.87Z" transform="translate(1)"/><path class="cls-8" d="M413.9,210.85a129.08,129.08,0,0,0-20,2,93.62,93.62,0,0,0-68.75,69.07l1.19,3.08a128.87,128.87,0,0,1,68.36-35.79,93.19,93.19,0,0,1,39.92-.91,128.57,128.57,0,0,1,31.55,8.33A151.49,151.49,0,0,1,474,230.39a93,93,0,0,0-40.14-18.45A130,130,0,0,0,413.9,210.85Z" transform="translate(1)"/><path class="cls-8" d="M998.5,381.2h.24V369.67l-.24-.19Z" transform="translate(1)"/><path class="cls-8" d="M995.85,381.2h2.65V369.48q-5-3.93-9.58-8.33A93.34,93.34,0,0,0,995.85,381.2Z" transform="translate(1)"/><path class="cls-8" d="M910.61,222.5a3.53,3.53,0,1,1,3.08,5.2,3.11,3.11,0,0,1-.32,0c.66,1.26,1.38,2.61,2.14,4.05a3.52,3.52,0,0,1,1.66,3s0,.07,0,.1l4.62,8.78a3.53,3.53,0,1,1,3.42,4.32,3.44,3.44,0,0,1-1.28-.26l1.74,3.32a3.51,3.51,0,0,1,3,3.51,3.45,3.45,0,0,1-.37,1.53l1,1.88q2.9,1.86,5.68,3.87a3.47,3.47,0,0,1,1.78-.49,3.55,3.55,0,0,1,3.51,3.57,3.42,3.42,0,0,1-.12.85c3,2.43,6,5,8.76,7.68a92.73,92.73,0,0,0-10-26,3.6,3.6,0,0,1-2,.62,3.53,3.53,0,0,1-1.7-6.6,93.49,93.49,0,0,0-30.23-28.24,35.71,35.71,0,0,1,2.7,3.87C908,217.72,909.07,219.62,910.61,222.5ZM936.84,251a3.54,3.54,0,1,1-3.56,3.51A3.55,3.55,0,0,1,936.84,251Zm-11.51-19.77a3.54,3.54,0,1,1-3.57,3.51A3.53,3.53,0,0,1,925.33,231.24Z" transform="translate(1)"/><path class="cls-8" d="M881.65,203.54c-1.93-.51-3.89-.93-5.87-1.32a130.6,130.6,0,0,0-39.8.87l-.08,0C852.8,203.43,871.21,203.51,881.65,203.54Z" transform="translate(1)"/><path class="cls-8" d="M507,283.11a92.85,92.85,0,0,0-33-52.72,151.49,151.49,0,0,0-7.79,26.24A128.89,128.89,0,0,1,507,283.11Z" transform="translate(1)"/><path class="cls-8" d="M978.18,378.94l-1,2.56,2.29,0c-.12-.79-.23-1.59-.35-2.39Z" transform="translate(1)"/><path class="cls-8" d="M554,384.33h20.94a129.2,129.2,0,0,1-28.06-20.46A93,93,0,0,0,554,384.33Z" transform="translate(1)"/><path class="cls-8" d="M929.3,257.9l-1-1.88a3.33,3.33,0,0,1-.61.87Z" transform="translate(1)"/><path class="cls-8" d="M835.9,203.11a93.1,93.1,0,0,0-69.9,74.3,128.83,128.83,0,0,1,70.78-38,93.17,93.17,0,0,1,39.8-.86,128.38,128.38,0,0,1,45.21,14.84,3.5,3.5,0,0,1,3.39-2.5,2.61,2.61,0,0,1,.48,0l-1.74-3.32a3.53,3.53,0,0,1-2.23-3.3,3.76,3.76,0,0,1,.09-.76l-4.62-8.78a3.53,3.53,0,1,1-3.5-3.66,3.46,3.46,0,0,1,1.85.55c-.76-1.44-1.48-2.79-2.14-4.05a3.52,3.52,0,0,1-3.19-3.52,3.6,3.6,0,0,1,.43-1.64c-1.54-2.88-2.58-4.78-3-5.46a35.71,35.71,0,0,0-2.7-3.87,93,93,0,0,0-23.28-9.63C871.21,203.51,852.8,203.43,835.9,203.11Zm77.69,37.65a3.54,3.54,0,1,1-3.56,3.51A3.54,3.54,0,0,1,913.59,240.76Z" transform="translate(1)"/><path class="cls-8" d="M978.84,377.3l-.66,1.64.91.13C979,378.47,978.92,377.9,978.84,377.3Z" transform="translate(1)"/><path class="cls-8" d="M313,273.74a4.77,4.77,0,0,1,8.93-.09l3.2,8.27a93.62,93.62,0,0,1,68.75-69.07,129.38,129.38,0,0,0-90,64.53l5.38,6.8Z" transform="translate(1)"/><path class="cls-8" d="M474,230.39c.74-1.78,1.51-3.47,2.32-5.09a128.43,128.43,0,0,0-42.46-13.36A93,93,0,0,1,474,230.39Z" transform="translate(1)"/><path class="cls-8" d="M998.5,369.48l.24.19V351.76l-.24-.41Z" transform="translate(1)"/><path class="cls-8" d="M986.75,315l-.15-2a128.54,128.54,0,0,0-49.17-85.2c-.13,0-.27,0-.41,0a3.54,3.54,0,0,1-3.45-2.91A128.61,128.61,0,0,0,917.12,215a3.52,3.52,0,1,1-6.32-3q-5.58-2.46-11.42-4.39a33.34,33.34,0,0,1,5.55,5.53,93.49,93.49,0,0,1,30.23,28.24,3.38,3.38,0,0,1,1.76-.47,3.53,3.53,0,0,1,2,6.45,92.73,92.73,0,0,1,10,26,128.49,128.49,0,0,1,38.49,76l.15,2,.06,2.7c.34,2.4.8,4.75,1.31,7.08q4.59,4.39,9.58,8.33V351.35a92.94,92.94,0,0,1-11.69-33.64Zm-61.4-87.22a3.54,3.54,0,1,1,3.56-3.51A3.54,3.54,0,0,1,925.35,227.79Zm11.59,10.61a3.54,3.54,0,1,1,3.56-3.51A3.53,3.53,0,0,1,936.94,238.4Z" transform="translate(1)"/><path class="cls-8" d="M883.81,203.54c-2.65-.52-5.32-1-8-1.32,2,.39,3.94.81,5.87,1.32Z" transform="translate(1)"/><path class="cls-8" d="M836,203.09l-.11,0h0Z" transform="translate(1)"/><path class="cls-8" d="M696.57,379q-3.41,2.81-7.06,5.29h6.56A29.63,29.63,0,0,1,696.57,379Z" transform="translate(1)"/><path class="cls-8" d="M544.6,319.5l-.4,0a128.73,128.73,0,0,0-67.92-94.23c-.81,1.62-1.58,3.31-2.32,5.09a92.85,92.85,0,0,1,33,52.72,128.48,128.48,0,0,1,38,72.78l.4,0c.36,2.71.85,5.38,1.43,8a129.2,129.2,0,0,0,28.06,20.46h9.78A93,93,0,0,1,544.6,319.5Z" transform="translate(1)"/><path class="cls-8" d="M731.23,351.8a128.59,128.59,0,0,1,12.4-42.36l-10.7-8.56a133.49,133.49,0,0,0-2.5,14.55H730a93,93,0,0,1-13.7,41,29.47,29.47,0,0,1,9.25-1.46,28.65,28.65,0,0,1,4.84.42c.15-1.21.3-2.42.41-3.64Z" transform="translate(1)"/><path class="cls-8" d="M766,277.41a93.1,93.1,0,0,1,69.9-74.3h0a128.87,128.87,0,0,0-102.94,97.77l10.7,8.56A128.69,128.69,0,0,1,766,277.41Z" transform="translate(1)"/><path class="cls-8" d="M904.93,213.17a33.34,33.34,0,0,0-5.55-5.53,128.54,128.54,0,0,0-15.57-4.1h-2.16A93,93,0,0,1,904.93,213.17Z" transform="translate(1)"/><path class="cls-7" d="M975.61,381.53l-8.33.15c.08.88.12,1.76.12,2.65H976l.59-1.48C976.28,382.41,975.94,382,975.61,381.53Z" transform="translate(1)"/><path class="cls-7" d="M465.43,260.24a93.08,93.08,0,0,0-30.81-11.94,129.88,129.88,0,0,0-39.92.91,93.66,93.66,0,0,0-62.45,51.09L342,325.5l2.76,3.48c1.49-1.28,2.5-2.29,2.5-2.29s7.52,8.17,11.74,8.29,12.11-7.59,12.11-7.59,7.23,8.16,11.74,8.29c-4.51-.13-11.74-8.29-11.74-8.29S363.2,335.1,359,335s-11.74-8.29-11.74-8.29-1,1-2.5,2.29l16.13,20.34c4.28-1.68,9.81-7.07,9.81-7.07s7.23,8.16,11.74,8.28c-4.51-.12-11.74-8.28-11.74-8.28s-5.53,5.39-9.81,7.07l7.05,8.91c1.42-1.21,2.38-2.14,2.38-2.14s7.22,8.16,11.74,8.28c-4.52-.12-11.74-8.28-11.74-8.28s-1,.93-2.38,2.14l20.69,26.1h69.77C457.53,356.36,457.24,301.87,465.43,260.24Z" transform="translate(1)"/><path class="cls-7" d="M865.29,362.46l-17.23-2.52a29.49,29.49,0,0,1,10.24,11.81A29.36,29.36,0,0,1,865.29,362.46Z" transform="translate(1)"/><path class="cls-7" d="M509.23,327.48a93,93,0,0,0-43.8-67.24c-8.19,41.63-7.9,96.12-7.05,124.09h75.21a128.38,128.38,0,0,1-24-56.89Z" transform="translate(1)"/><path class="cls-7" d="M966.52,377.23a29.75,29.75,0,0,1,.76,4.45l8.33-.15c-.82-1.09-1.61-2.2-2.39-3.32Z" transform="translate(1)"/><path class="cls-7" d="M764.72,326.31a128.46,128.46,0,0,1-14.23,42.59,30.3,30.3,0,0,1,1.57,2.85,29.43,29.43,0,0,1,53.12,0,29.52,29.52,0,0,1,17.89-15.46l-25.53-3.72Z" transform="translate(1)"/><path class="cls-7" d="M911.42,371.75c.39-.81.82-1.6,1.28-2.37l-2.8-.41A28.74,28.74,0,0,1,911.42,371.75Z" transform="translate(1)"/><path class="cls-7" d="M885,355a29.39,29.39,0,0,1,24.94,14l2.8.41a29.72,29.72,0,0,1,9.69-9.91,3.53,3.53,0,1,1,5.52-2.89,1.38,1.38,0,0,1,0,.2,29.14,29.14,0,0,1,4.83-1.3,3.5,3.5,0,0,1,6.45-.45,29.42,29.42,0,0,1,27.36,22.2l6.7,1a128.47,128.47,0,0,1-22-56.73l-.15-2-.06-2.7a92.87,92.87,0,0,0-14.53-38.21,3.53,3.53,0,0,1-3.38-3.55,3.83,3.83,0,0,1,.18-1c-1.79-2.38-3.7-4.66-5.7-6.85a3.52,3.52,0,0,1-6.06-2.49,3.46,3.46,0,0,1,1.11-2.53c-2.07-1.95-4.23-3.8-6.46-5.55a3.52,3.52,0,0,1-5.7-4.1,92.81,92.81,0,0,0-33.91-13.93,129.1,129.1,0,0,0-20-1.1,130.88,130.88,0,0,0-19.85,2,93.1,93.1,0,0,0-71.06,82.38h-.4c-.17,1.51-.37,3-.6,4.49l32.82,26.26,25.53,3.72a29.54,29.54,0,0,1,25,3.65l17.23,2.52A29.28,29.28,0,0,1,885,355Zm51.64-72.92a3.54,3.54,0,1,1-3.56,3.51A3.53,3.53,0,0,1,936.6,282.08Zm-.07,10.2a3.54,3.54,0,1,1-3.57,3.51A3.53,3.53,0,0,1,936.53,292.28Zm-.08,10.08a3.53,3.53,0,1,1-3.56,3.5A3.54,3.54,0,0,1,936.45,302.36Zm-.08,10.27a3.54,3.54,0,1,1-3.56,3.5A3.54,3.54,0,0,1,936.37,312.63Zm-.08,10.27a3.54,3.54,0,1,1-3.56,3.5A3.53,3.53,0,0,1,936.29,322.9Zm-.08,10.52a3.54,3.54,0,1,1-3.56,3.51A3.54,3.54,0,0,1,936.21,333.42Zm-.07,9.61a3.54,3.54,0,1,1-3.56,3.51A3.54,3.54,0,0,1,936.14,343ZM925,271.47a3.54,3.54,0,1,1-3.56,3.5A3.54,3.54,0,0,1,925,271.47ZM924.94,282a3.54,3.54,0,1,1-3.56,3.51A3.54,3.54,0,0,1,924.94,282Zm-.08,10.2a3.54,3.54,0,1,1-3.56,3.51A3.54,3.54,0,0,1,924.86,292.19Zm-.07,10.08a3.54,3.54,0,1,1-3.57,3.5A3.52,3.52,0,0,1,924.79,302.27Zm-.08,10.27a3.54,3.54,0,1,1-3.56,3.51A3.52,3.52,0,0,1,924.71,312.54Zm-.08,10.27a3.54,3.54,0,1,1-3.56,3.51A3.54,3.54,0,0,1,924.63,322.81Zm-.08,10.52a3.54,3.54,0,1,1-3.56,3.51A3.55,3.55,0,0,1,924.55,333.33Zm-.07,9.61a3.54,3.54,0,1,1-3.57,3.51A3.53,3.53,0,0,1,924.48,342.94Zm-11.05-81.83a3.54,3.54,0,1,1-3.56,3.5A3.53,3.53,0,0,1,913.43,261.11Zm-.07,10.27a3.54,3.54,0,1,1-3.57,3.51A3.52,3.52,0,0,1,913.36,271.38Zm-.08,10.52a3.54,3.54,0,1,1-3.57,3.51A3.53,3.53,0,0,1,913.28,281.9Zm-.08,10.2a3.54,3.54,0,1,1-3.56,3.51A3.54,3.54,0,0,1,913.2,292.1Zm-.08,10.08a3.54,3.54,0,1,1-3.56,3.51A3.54,3.54,0,0,1,913.12,302.18ZM913,312.45a3.54,3.54,0,1,1-3.56,3.51A3.53,3.53,0,0,1,913,312.45ZM913,322.72a3.54,3.54,0,1,1-3.57,3.51A3.52,3.52,0,0,1,913,322.72Zm-.09,10.53a3.53,3.53,0,1,1-3.56,3.5A3.52,3.52,0,0,1,912.88,333.25Zm-.07,9.6a3.54,3.54,0,1,1-3.56,3.51A3.54,3.54,0,0,1,912.81,342.85Zm-.08,10.08a3.54,3.54,0,1,1-3.56,3.5A3.53,3.53,0,0,1,912.73,352.93Z" transform="translate(1)"/><path class="cls-7" d="M465.43,260.24c.24-1.21.49-2.42.74-3.61a128.57,128.57,0,0,0-31.55-8.33A93.08,93.08,0,0,1,465.43,260.24Z" transform="translate(1)"/><path class="cls-7" d="M993.68,381.2l-14.24.26c.15,1,.29,1.92.44,2.87h17.54c-.54-1-1.06-2.08-1.57-3.13Z" transform="translate(1)"/><path class="cls-7" d="M326.34,285l5.91,15.3a93.66,93.66,0,0,1,62.45-51.09A128.87,128.87,0,0,0,326.34,285Z" transform="translate(1)"/><path class="cls-7" d="M976.61,382.85l.54-1.35-1.54,0C975.94,382,976.28,382.41,976.61,382.85Z" transform="translate(1)"/><path class="cls-7" d="M933.2,264.79a3.52,3.52,0,0,1,1.78-3q-2.79-2-5.68-3.87l4,7.56A3.63,3.63,0,0,1,933.2,264.79Z" transform="translate(1)"/><path class="cls-7" d="M936.71,268.35a3.47,3.47,0,0,1-2.48-1l2.23,4.27.22,0a3.53,3.53,0,0,1,3.51,3.56,3.45,3.45,0,0,1-.75,2.13c5.32,10.17,10.88,20.81,16.33,31.25a129.23,129.23,0,0,1-5.33-23.38l-.15-2-.06-2.7c-.35-2.4-.8-4.75-1.32-7.08-2.8-2.69-5.73-5.25-8.76-7.68A3.53,3.53,0,0,1,936.71,268.35Z" transform="translate(1)"/><path class="cls-7" d="M975.12,345.59c10.83,20.76,18.56,35.61,18.56,35.61h2.17a93.34,93.34,0,0,1-6.93-20.05A131,131,0,0,1,975.12,345.59Z" transform="translate(1)"/><path class="cls-7" d="M973.22,378.21c.78,1.12,1.57,2.23,2.39,3.32l1.54,0,1-2.56Z" transform="translate(1)"/><path class="cls-7" d="M979.44,381.46l14.24-.26-14.59-2.13C979.21,379.87,979.32,380.67,979.44,381.46Z" transform="translate(1)"/><path class="cls-7" d="M508.83,291.09l-.4,0c-.36-2.72-.85-5.38-1.43-8a128.89,128.89,0,0,0-40.83-26.48c-.25,1.19-.5,2.4-.74,3.61a93,93,0,0,1,43.8,67.24l.4,0a128.38,128.38,0,0,0,24,56.89H554a93,93,0,0,1-7.12-20.46A128.48,128.48,0,0,1,508.83,291.09Z" transform="translate(1)"/><path class="cls-7" d="M755.94,319.29A128.69,128.69,0,0,1,733.25,356a29.49,29.49,0,0,1,17.24,12.86,128.46,128.46,0,0,0,14.23-42.59Z" transform="translate(1)"/><path class="cls-7" d="M936.46,271.58l-2.23-4.27a3.57,3.57,0,0,1-1-1.85l-4-7.56-1.6-1a3.47,3.47,0,0,1-2.58,1.1,3.53,3.53,0,0,1-3.51-3.56,3.68,3.68,0,0,1,.18-1,128.38,128.38,0,0,0-45.21-14.84,92.81,92.81,0,0,1,33.91,13.93,3.52,3.52,0,1,1,5.7,4.1c2.23,1.75,4.39,3.6,6.46,5.55a3.48,3.48,0,0,1,2.45-1,3.52,3.52,0,0,1,2.5,6c2,2.19,3.91,4.47,5.7,6.85A3.5,3.5,0,0,1,936.46,271.58Z" transform="translate(1)"/><path class="cls-7" d="M766,277.41c-.47,2.65-.84,5.34-1.08,8.06h-.4a128.9,128.9,0,0,1-8.58,33.83l8.78,7c.23-1.49.43-3,.6-4.49h.4a93.1,93.1,0,0,1,71.06-82.38A128.83,128.83,0,0,0,766,277.41Z" transform="translate(1)"/><path class="cls-7" d="M955.77,308.5c-5.45-10.44-11-21.08-16.33-31.25a3.53,3.53,0,0,1-2.81,1.37h-.13A92.87,92.87,0,0,1,951,316.82l.06,2.7.15,2a128.47,128.47,0,0,0,22,56.73l5,.73.66-1.64c.08.6.17,1.17.25,1.77l14.59,2.13s-7.73-14.85-18.56-35.61A128.4,128.4,0,0,1,955.77,308.5Z" transform="translate(1)"/><path class="cls-7" d="M950.29,283.16l.15,2a129.23,129.23,0,0,0,5.33,23.38c6.87,13.15,13.56,26,19.35,37.09a131,131,0,0,0,13.8,15.56c-.51-2.33-1-4.68-1.31-7.08l-.06-2.7-.15-2a128.49,128.49,0,0,0-38.49-76c.52,2.33,1,4.68,1.32,7.08Z" transform="translate(1)"/><path class="cls-7" d="M508.83,291.09a128.48,128.48,0,0,0,38,72.78c-.58-2.63-1.07-5.3-1.43-8l-.4,0a128.48,128.48,0,0,0-38-72.78c.58,2.63,1.07,5.29,1.43,8Z" transform="translate(1)"/><path class="cls-7" d="M743.63,309.44a128.59,128.59,0,0,0-12.4,42.36l-.39,0c-.11,1.22-.26,2.43-.41,3.64,1,.16,1.89.37,2.82.62a128.69,128.69,0,0,0,22.69-36.75Z" transform="translate(1)"/><path class="cls-7" d="M764.92,285.47c.24-2.72.61-5.41,1.08-8.06a128.69,128.69,0,0,0-22.37,32l12.31,9.85a128.9,128.9,0,0,0,8.58-33.83Z" transform="translate(1)"/><path class="cls-7" d="M975.12,345.59c-5.79-11.13-12.48-23.94-19.35-37.09A128.4,128.4,0,0,0,975.12,345.59Z" transform="translate(1)"/><path class="cls-3" d="M106.44,72.48a31.47,31.47,0,0,1,0,62.94v12.67A44.14,44.14,0,1,0,62.3,104H75A31.47,31.47,0,0,1,106.44,72.48Z" transform="translate(1)"/><path class="cls-7" d="M106.44,135.42h-.18v12.66h.18Z" transform="translate(1)"/><path class="cls-7" d="M75,104H62.3a44.14,44.14,0,0,0,44,44.13V135.42A31.47,31.47,0,0,1,75,104Z" transform="translate(1)"/><path class="cls-8" d="M137.91,104A31.47,31.47,0,1,0,75,104h31.29v0h.18v24.3L126,106l-19.58,22.26v7.17A31.47,31.47,0,0,0,137.91,104Z" transform="translate(1)"/><polygon class="cls-8" points="107.44 128.25 107.44 103.95 107.26 103.95 107.26 128.45 107.44 128.25"/><path class="cls-8" d="M106.26,104H75a31.47,31.47,0,0,0,31.29,31.47V104Z" transform="translate(1)"/><path class="cls-8" d="M106.26,128.45v7h.18v-7.17Z" transform="translate(1)"/><path class="cls-7" d="M858.18,96.66a12.68,12.68,0,0,0-12.67,12.68h12.67v0h12.68A12.68,12.68,0,0,0,858.18,96.66Z" transform="translate(1)"/><path class="cls-7" d="M845.51,125.55h12.67V112.88A12.67,12.67,0,0,0,845.51,125.55Z" transform="translate(1)"/><path class="cls-7" d="M858.18,112.88v12.67h12.68A12.68,12.68,0,0,0,858.18,112.88Z" transform="translate(1)"/><path class="cls-7" d="M870.86,142.33a12.68,12.68,0,0,0-12.68-12.68v12.68Z" transform="translate(1)"/><path class="cls-7" d="M845.51,142.33h12.67V129.65A12.68,12.68,0,0,0,845.51,142.33Z" transform="translate(1)"/><circle class="cls-9" cx="859.54" cy="84.68" r="4.37"/><path class="cls-7" d="M65.12,294.36l24.66,50.18L160,236.62a76.49,76.49,0,0,0-51-19.42c-.91,0-1.81,0-2.71.07v0a76.8,76.8,0,0,0-67.2,108.61l19.59-31.83A3.7,3.7,0,0,1,65.12,294.36Z" transform="translate(1)"/><circle class="cls-6" cx="286.62" cy="160.77" r="30.56"/><path class="cls-4" d="M39.06,325.88,9.15,374.48a3.7,3.7,0,0,0,1.95,5.43l12.75,4.42h40L77.14,364A77.08,77.08,0,0,1,39.06,325.88Z" transform="translate(1)"/><path class="cls-4" d="M77.14,364l12.64-19.41L65.12,294.36a3.7,3.7,0,0,0-6.47-.31L39.06,325.88A77.08,77.08,0,0,0,77.14,364Z" transform="translate(1)"/><path class="cls-4" d="M189.11,208.68a5.54,5.54,0,0,0-10-1.47L160,236.62a76.82,76.82,0,0,1-51,134.24c-2.16,0-4.29-.11-6.41-.29l6.76,13.76h72.59l19.76-132.76Z" transform="translate(1)"/><path class="cls-4" d="M102.56,370.57c2.12.18,4.25.29,6.41.29a76.82,76.82,0,0,0,51-134.24L89.78,344.54Z" transform="translate(1)"/><path class="cls-5" d="M77.14,364,63.88,384.33h45.44l-6.76-13.76A76.33,76.33,0,0,1,77.14,364Z" transform="translate(1)"/><path class="cls-5" d="M77.14,364a76.33,76.33,0,0,0,25.42,6.62l-12.78-26Z" transform="translate(1)"/><path class="cls-10" d="M274.88,353.25s-7.67,7.71-12.11,7.59S251,352.55,251,352.55s-6.77,7.74-12.11,7.59c5.34.15,12.11-7.59,12.11-7.59s7.3,8.17,11.74,8.29,12.11-7.59,12.11-7.59a49.85,49.85,0,0,0,7,6.22l4.32-11.88c-4.31-1-11-8.18-11-8.18s-7.67,7.71-12.11,7.59-11.74-8.29-11.74-8.29-6.76,7.74-12.11,7.59c5.35.15,12.11-7.59,12.11-7.59s7.3,8.17,11.74,8.29,12.11-7.59,12.11-7.59,6.65,7.22,11,8.18l1.76-4.85h-.29c-.08-3.34,0-6.65.16-9.93l-.43,0c-4.22-.12-11.74-8.29-11.74-8.29s-7.68,7.72-12.12,7.59-11.74-8.28-11.74-8.28-6.76,7.73-12.11,7.58c5.35.15,12.11-7.58,12.11-7.58s7.3,8.16,11.74,8.28,12.12-7.59,12.12-7.59,7.52,8.17,11.74,8.29l.43,0a127.74,127.74,0,0,1,4.26-26.54l-5.22.11a128.43,128.43,0,0,1,6.22-42.54L228.64,182.5a9.8,9.8,0,0,0-17.38,4.65l-9.59,64.42,38.89,132.76h32.32l9-24.86A49.85,49.85,0,0,1,274.88,353.25Z" transform="translate(1)"/><path class="cls-10" d="M286.89,306.38l5.22-.11a128.49,128.49,0,0,1,11.74-28.89l-10.74-13.54A128.43,128.43,0,0,0,286.89,306.38Z" transform="translate(1)"/><path class="cls-10" d="M301.29,306.06l-9.18.21a127.74,127.74,0,0,0-4.26,26.54,10.91,10.91,0,0,0,4.37-1.75Z" transform="translate(1)"/><path class="cls-10" d="M287.85,332.81c-.18,3.28-.24,6.59-.16,9.93H288l4.24-11.68A10.91,10.91,0,0,1,287.85,332.81Z" transform="translate(1)"/><path class="cls-10" d="M309.23,284.18l-5.38-6.8a128.49,128.49,0,0,0-11.74,28.89l9.18-.21Z" transform="translate(1)"/><path class="cls-10" d="M344.74,329,342,325.5l1.69,4.38C344.05,329.57,344.41,329.27,344.74,329Z" transform="translate(1)"/><path class="cls-10" d="M349,343.78l7.56,19.55a5.11,5.11,0,0,0,1.58.34c2.76.08,7.07-3.17,9.74-5.44l-7.05-8.91a6.24,6.24,0,0,1-2.31.52C355.79,349.76,351.6,346.2,349,343.78Z" transform="translate(1)"/><path class="cls-10" d="M349,343.78c2.56,2.42,6.75,6,9.52,6.06a6.24,6.24,0,0,0,2.31-.52L344.74,329c-.33.29-.69.59-1.07.9Z" transform="translate(1)"/><path class="cls-10" d="M358.18,363.67a5.11,5.11,0,0,1-1.58-.34l8.11,21h23.9l-20.69-26.1C365.25,360.5,360.94,363.75,358.18,363.67Z" transform="translate(1)"/><polygon class="cls-5" points="182.91 384.33 241.56 384.33 202.67 251.56 182.91 384.33"/><path class="cls-4" d="M326.34,285l-1.19-3.08q-.64,2.7-1.13,5.46C324.78,286.58,325.55,285.79,326.34,285Z" transform="translate(1)"/><path class="cls-4" d="M313,273.74l-3.79,10.44,8.34,10.52q3.09-3.78,6.45-7.32.48-2.76,1.13-5.46l-3.2-8.27A4.77,4.77,0,0,0,313,273.74Z" transform="translate(1)"/><path class="cls-4" d="M342,325.5l-9.73-25.2q-2,4.15-3.5,8.51Z" transform="translate(1)"/><path class="cls-4" d="M324,287.38a92.7,92.7,0,0,0-1.37,13.73l6.1,7.7q1.54-4.37,3.5-8.51L326.34,285C325.55,285.79,324.78,286.58,324,287.38Z" transform="translate(1)"/><path class="cls-4" d="M322.65,301.11A92.7,92.7,0,0,1,324,287.38q-3.36,3.54-6.45,7.32Z" transform="translate(1)"/><path class="cls-5" d="M287,347.7a4.41,4.41,0,0,1-.79-.11l-4.32,11.88a10,10,0,0,0,4.72,2.07,6.65,6.65,0,0,0,2.76-.7,128.38,128.38,0,0,1,2.74-15.13C290.29,346.87,288.44,347.74,287,347.7Z" transform="translate(1)"/><path class="cls-5" d="M292.12,345.71c.25-1,.51-2.06.79-3.08l-4.93.11-1.76,4.85a4.41,4.41,0,0,0,.79.11C288.44,347.74,290.29,346.87,292.12,345.71Z" transform="translate(1)"/><path class="cls-5" d="M324.24,378.32l-35.75.78a129.82,129.82,0,0,1,.89-18.26,6.65,6.65,0,0,1-2.76.7,10,10,0,0,1-4.72-2.07l-9,24.86H345C331.46,365.63,323.71,354.55,324.24,378.32Z" transform="translate(1)"/><path class="cls-5" d="M301.29,306.06l-9.07,25a46.63,46.63,0,0,0,6.38-4.94,128.49,128.49,0,0,1,10.79-20.23Z" transform="translate(1)"/><path class="cls-5" d="M298.6,326.12a46.63,46.63,0,0,1-6.38,4.94L288,342.74l4.93-.11A128.58,128.58,0,0,1,298.6,326.12Z" transform="translate(1)"/><path class="cls-5" d="M317.57,294.7l-8.34-10.52-7.94,21.88,8.1-.17A130.29,130.29,0,0,1,317.57,294.7Z" transform="translate(1)"/><path class="cls-5" d="M346.83,341.55s-7.68,7.71-12.12,7.59c-3.78-.11-9.63-6-11.28-7.79,0,.2,0,.4,0,.61l-1.54,0c-2.12,2.14-7,6.56-11,6.45v-.05c-2.93-.08-7-3.53-9.48-5.95l-5,.11a41.5,41.5,0,0,1-4.27,3.16,128.38,128.38,0,0,0-2.74,15.13c4.2-1.87,9.36-6.89,9.36-6.89s7.22,8.16,11.74,8.28v0c5.34.15,12.11-7.58,12.11-7.58s7.3,8.16,11.74,8.29,12.11-7.59,12.11-7.59,5.88,6.38,10.16,7.94L349,343.78C347.72,342.51,346.83,341.55,346.83,341.55Z" transform="translate(1)"/><path class="cls-5" d="M323.43,341.35c1.65,1.75,7.5,7.68,11.28,7.79,4.44.12,12.12-7.59,12.12-7.59s.89,1,2.21,2.23l-5.37-13.9c-2.59,2.1-6.07,4.47-8.54,4.4-3.49-.1-8.72-5.13-10.82-7.3A94.74,94.74,0,0,0,323.43,341.35Z" transform="translate(1)"/><path class="cls-5" d="M324.31,327c2.1,2.17,7.33,7.2,10.82,7.3,2.47.07,5.95-2.3,8.54-4.4L342,325.5l-13.23-16.69A92.58,92.58,0,0,0,324.31,327Z" transform="translate(1)"/><path class="cls-5" d="M292.12,345.71a41.5,41.5,0,0,0,4.27-3.16l-3.48.08C292.63,343.65,292.37,344.68,292.12,345.71Z" transform="translate(1)"/><path class="cls-5" d="M346.44,355.39s-7.67,7.71-12.11,7.59-11.74-8.29-11.74-8.29-6.77,7.73-12.11,7.58v0c-4.52-.12-11.74-8.28-11.74-8.28s-5.16,5-9.36,6.89a129.82,129.82,0,0,0-.89,18.26l35.75-.78c-.53-23.77,7.22-12.69,20.78,6h19.69l-8.11-21C352.32,361.77,346.44,355.39,346.44,355.39Z" transform="translate(1)"/><path class="cls-5" d="M310.86,348.39v.05c4.06.11,8.92-4.31,11-6.45l-20.52.45C303.88,344.86,307.93,348.31,310.86,348.39Z" transform="translate(1)"/><path class="cls-5" d="M321.9,342l1.54,0c0-.21,0-.41,0-.61l-.46-.5S322.57,341.31,321.9,342Z" transform="translate(1)"/><path class="cls-5" d="M299.12,340.11s-1.12,1.09-2.73,2.44l5-.11C300,341.13,299.12,340.11,299.12,340.11Z" transform="translate(1)"/><path class="cls-5" d="M311.27,333.58v0c-4.51-.13-11.74-8.29-11.74-8.29s-.35.34-.93.87a128.58,128.58,0,0,0-5.69,16.51l3.48-.08c1.61-1.35,2.73-2.44,2.73-2.44s.9,1,2.26,2.33L321.9,342c.67-.68,1.07-1.14,1.07-1.14l.46.5a94.74,94.74,0,0,1,.88-14.37c-.57-.59-.93-1-.93-1S316.62,333.73,311.27,333.58Z" transform="translate(1)"/><path class="cls-5" d="M322.64,305.59l-13.25.3a128.49,128.49,0,0,0-10.79,20.23c.58-.53.93-.87.93-.87s7.23,8.16,11.74,8.29v0c5.35.15,12.11-7.58,12.11-7.58s.36.39.93,1a92.58,92.58,0,0,1,4.44-18.17l-6.1-7.7C322.61,302.6,322.6,304.09,322.64,305.59Z" transform="translate(1)"/><path class="cls-5" d="M309.39,305.89l13.25-.3c0-1.5,0-3,0-4.48l-5.08-6.41A130.29,130.29,0,0,0,309.39,305.89Z" transform="translate(1)"/><circle class="cls-8" cx="912.71" cy="356.46" r="3.53" transform="translate(15.15 747.23) rotate(-44.84)"/><path class="cls-8" d="M927.91,356.58a3.54,3.54,0,1,0-5.52,2.89,30,30,0,0,1,5.49-2.69A1.38,1.38,0,0,0,927.91,356.58Z" transform="translate(1)"/><path class="cls-8" d="M939.16,355a3.5,3.5,0,0,0-6.45.45,28.91,28.91,0,0,1,5.37-.48Z" transform="translate(1)"/><path class="cls-8" d="M912.76,349.92a3.54,3.54,0,1,0-3.51-3.56A3.53,3.53,0,0,0,912.76,349.92Z" transform="translate(1)"/><path class="cls-8" d="M924.42,350a3.54,3.54,0,1,0-3.51-3.56A3.54,3.54,0,0,0,924.42,350Z" transform="translate(1)"/><path class="cls-8" d="M936.09,350.1a3.54,3.54,0,1,0-3.51-3.56A3.54,3.54,0,0,0,936.09,350.1Z" transform="translate(1)"/><path class="cls-8" d="M912.83,340.31a3.53,3.53,0,1,0-3.51-3.56A3.52,3.52,0,0,0,912.83,340.31Z" transform="translate(1)"/><path class="cls-8" d="M924.49,340.4a3.54,3.54,0,1,0-3.5-3.56A3.53,3.53,0,0,0,924.49,340.4Z" transform="translate(1)"/><path class="cls-8" d="M936.16,340.49a3.54,3.54,0,1,0-3.51-3.56A3.53,3.53,0,0,0,936.16,340.49Z" transform="translate(1)"/><path class="cls-8" d="M912.91,329.79a3.54,3.54,0,1,0-3.51-3.56A3.54,3.54,0,0,0,912.91,329.79Z" transform="translate(1)"/><path class="cls-8" d="M924.58,329.88a3.54,3.54,0,1,0-3.51-3.56A3.54,3.54,0,0,0,924.58,329.88Z" transform="translate(1)"/><path class="cls-8" d="M936.24,330a3.54,3.54,0,1,0-3.51-3.57A3.54,3.54,0,0,0,936.24,330Z" transform="translate(1)"/><path class="cls-8" d="M913,319.52a3.54,3.54,0,1,0-3.51-3.56A3.54,3.54,0,0,0,913,319.52Z" transform="translate(1)"/><circle class="cls-8" cx="924.68" cy="316.07" r="3.53" transform="translate(47.11 743.92) rotate(-44.84)"/><path class="cls-8" d="M936.32,319.7a3.54,3.54,0,1,0-3.51-3.57A3.54,3.54,0,0,0,936.32,319.7Z" transform="translate(1)"/><path class="cls-8" d="M913.07,309.25a3.54,3.54,0,1,0-3.51-3.56A3.54,3.54,0,0,0,913.07,309.25Z" transform="translate(1)"/><circle class="cls-8" cx="924.76" cy="305.8" r="3.53" transform="translate(54.38 740.99) rotate(-44.84)"/><path class="cls-8" d="M936.4,309.42a3.53,3.53,0,1,0-3.51-3.56A3.53,3.53,0,0,0,936.4,309.42Z" transform="translate(1)"/><circle class="cls-8" cx="913.17" cy="295.64" r="3.53" transform="translate(57.74 729.01) rotate(-44.78)"/><path class="cls-8" d="M924.81,299.26a3.54,3.54,0,1,0-3.51-3.56A3.53,3.53,0,0,0,924.81,299.26Z" transform="translate(1)"/><path class="cls-8" d="M936.47,299.35a3.54,3.54,0,1,0-3.51-3.56A3.54,3.54,0,0,0,936.47,299.35Z" transform="translate(1)"/><path class="cls-8" d="M913.22,289a3.54,3.54,0,1,0-3.51-3.56A3.52,3.52,0,0,0,913.22,289Z" transform="translate(1)"/><circle class="cls-8" cx="924.91" cy="285.53" r="3.53" transform="translate(68.27 734.34) rotate(-44.78)"/><path class="cls-8" d="M936.55,289.15a3.54,3.54,0,1,0-3.51-3.56A3.53,3.53,0,0,0,936.55,289.15Z" transform="translate(1)"/><path class="cls-8" d="M913.3,278.45a3.54,3.54,0,1,0-3.51-3.56A3.54,3.54,0,0,0,913.3,278.45Z" transform="translate(1)"/><circle class="cls-8" cx="924.99" cy="275" r="3.53" transform="translate(76.16 732.19) rotate(-44.84)"/><path class="cls-8" d="M933.12,275.06a3.53,3.53,0,0,0,3.38,3.55c-1-1.55-2.08-3.09-3.2-4.57A3.83,3.83,0,0,0,933.12,275.06Z" transform="translate(1)"/><path class="cls-8" d="M936.68,271.56l-.22,0q1.49,2.81,3,5.67a3.45,3.45,0,0,0,.75-2.13A3.53,3.53,0,0,0,936.68,271.56Z" transform="translate(1)"/><path class="cls-8" d="M933.3,274c1.12,1.48,2.17,3,3.2,4.57h.13a3.53,3.53,0,0,0,2.81-1.37q-1.5-2.87-3-5.67A3.5,3.5,0,0,0,933.3,274Z" transform="translate(1)"/><path class="cls-8" d="M913.38,268.18a3.54,3.54,0,1,0-3.51-3.57A3.54,3.54,0,0,0,913.38,268.18Z" transform="translate(1)"/><path class="cls-8" d="M922.65,262.17a3.46,3.46,0,0,0-1.11,2.53,3.52,3.52,0,0,0,6.06,2.49Q925.21,264.58,922.65,262.17Z" transform="translate(1)"/><path class="cls-8" d="M925.1,261.2a3.48,3.48,0,0,0-2.45,1q2.57,2.41,5,5a3.52,3.52,0,0,0-2.5-6Z" transform="translate(1)"/><path class="cls-8" d="M940.27,264.85a3.55,3.55,0,0,0-3.51-3.57,3.47,3.47,0,0,0-1.78.49c1.75,1.27,3.48,2.58,5.17,3.93A3.42,3.42,0,0,0,940.27,264.85Z" transform="translate(1)"/><path class="cls-8" d="M933.2,264.79a3.63,3.63,0,0,0,.06.67l1,1.85a3.47,3.47,0,0,0,2.48,1,3.53,3.53,0,0,0,3.44-2.65c-1.69-1.35-3.42-2.66-5.17-3.93A3.52,3.52,0,0,0,933.2,264.79Z" transform="translate(1)"/><path class="cls-8" d="M934.23,267.31l-1-1.85A3.57,3.57,0,0,0,934.23,267.31Z" transform="translate(1)"/><path class="cls-8" d="M910,254.34a3.52,3.52,0,0,0,6.24,2.28c-1.85-1.44-3.75-2.8-5.7-4.1A3.53,3.53,0,0,0,910,254.34Z" transform="translate(1)"/><path class="cls-8" d="M913.51,250.84a3.52,3.52,0,0,0-3,1.68c2,1.3,3.85,2.66,5.7,4.1a3.51,3.51,0,0,0-2.68-5.78Z" transform="translate(1)"/><path class="cls-8" d="M928.68,254.49a3.51,3.51,0,0,0-3-3.51q1.3,2.46,2.65,5A3.45,3.45,0,0,0,928.68,254.49Z" transform="translate(1)"/><path class="cls-8" d="M928.31,256q-1.35-2.58-2.65-5a2.61,2.61,0,0,0-.48,0,3.5,3.5,0,0,0-3.39,2.5c2,1.1,4,2.26,5.91,3.46A3.33,3.33,0,0,0,928.31,256Z" transform="translate(1)"/><path class="cls-8" d="M925.12,258a3.47,3.47,0,0,0,2.58-1.1c-1.94-1.2-3.91-2.36-5.91-3.46a3.68,3.68,0,0,0-.18,1A3.53,3.53,0,0,0,925.12,258Z" transform="translate(1)"/><path class="cls-8" d="M936.79,258.08a3.54,3.54,0,1,0-3.51-3.56A3.53,3.53,0,0,0,936.79,258.08Z" transform="translate(1)"/><circle class="cls-8" cx="913.56" cy="244.3" r="3.53" transform="translate(94.49 715.2) rotate(-44.84)"/><path class="cls-8" d="M928.76,244.41a3.53,3.53,0,0,0-7-.81l2.14,4.06a3.44,3.44,0,0,0,1.28.26A3.54,3.54,0,0,0,928.76,244.41Z" transform="translate(1)"/><path class="cls-8" d="M921.69,244.36a3.53,3.53,0,0,0,2.23,3.3l-2.14-4.06A3.76,3.76,0,0,0,921.69,244.36Z" transform="translate(1)"/><path class="cls-8" d="M933.36,244.45a3.53,3.53,0,0,0,3.5,3.56,3.6,3.6,0,0,0,2-.62c-1.17-2-2.41-4-3.72-6A3.5,3.5,0,0,0,933.36,244.45Z" transform="translate(1)"/><path class="cls-8" d="M940.42,244.5a3.52,3.52,0,0,0-3.5-3.56,3.38,3.38,0,0,0-1.76.47c1.31,1.94,2.55,3.94,3.72,6A3.51,3.51,0,0,0,940.42,244.5Z" transform="translate(1)"/><path class="cls-8" d="M915.51,231.71l1.65,3.11s0-.07,0-.1A3.52,3.52,0,0,0,915.51,231.71Z" transform="translate(1)"/><path class="cls-8" d="M913.66,231.16a3.53,3.53,0,1,0,3.5,3.66l-1.65-3.11A3.46,3.46,0,0,0,913.66,231.16Z" transform="translate(1)"/><path class="cls-8" d="M925.27,238.31a3.54,3.54,0,1,0-3.51-3.56A3.52,3.52,0,0,0,925.27,238.31Z" transform="translate(1)"/><path class="cls-8" d="M937,231.33a3.54,3.54,0,1,0,3.51,3.56A3.54,3.54,0,0,0,937,231.33Z" transform="translate(1)"/><path class="cls-8" d="M917.25,224.19a3.53,3.53,0,0,0-6.64-1.69c.79,1.47,1.72,3.2,2.76,5.16a3.11,3.11,0,0,0,.32,0A3.54,3.54,0,0,0,917.25,224.19Z" transform="translate(1)"/><path class="cls-8" d="M910.18,224.14a3.52,3.52,0,0,0,3.19,3.52c-1-2-2-3.69-2.76-5.16A3.6,3.6,0,0,0,910.18,224.14Z" transform="translate(1)"/><path class="cls-8" d="M925.41,220.72a3.54,3.54,0,1,0,3.5,3.56A3.53,3.53,0,0,0,925.41,220.72Z" transform="translate(1)"/><path class="cls-8" d="M940.58,224.37a3.54,3.54,0,1,0-7,.6c1.31.93,2.59,1.89,3.86,2.87A3.53,3.53,0,0,0,940.58,224.37Z" transform="translate(1)"/><path class="cls-8" d="M937,227.88c.14,0,.28,0,.41,0-1.27-1-2.55-1.94-3.86-2.87A3.54,3.54,0,0,0,937,227.88Z" transform="translate(1)"/><path class="cls-8" d="M917.33,213.92A3.53,3.53,0,0,0,910.8,212q3.21,1.41,6.32,3A3.42,3.42,0,0,0,917.33,213.92Z" transform="translate(1)"/><path class="cls-8" d="M913.77,217.43a3.51,3.51,0,0,0,3.35-2.4q-3.11-1.59-6.32-3a3.48,3.48,0,0,0-.54,1.84A3.53,3.53,0,0,0,913.77,217.43Z" transform="translate(1)"/><path class="cls-8" d="M925.48,210.45A3.54,3.54,0,1,0,929,214,3.53,3.53,0,0,0,925.48,210.45Z" transform="translate(1)"/><path class="cls-8" d="M937.15,210.54a3.53,3.53,0,1,0,3.51,3.56A3.52,3.52,0,0,0,937.15,210.54Z" transform="translate(1)"/><path class="cls-8" d="M913.9,200.09a3.54,3.54,0,1,0,3.51,3.56A3.53,3.53,0,0,0,913.9,200.09Z" transform="translate(1)"/><path class="cls-8" d="M925.56,200.18a3.54,3.54,0,1,0,3.51,3.56A3.53,3.53,0,0,0,925.56,200.18Z" transform="translate(1)"/><path class="cls-8" d="M937.23,200.27a3.53,3.53,0,1,0,3.5,3.56A3.52,3.52,0,0,0,937.23,200.27Z" transform="translate(1)"/><path class="cls-8" d="M914,190a3.54,3.54,0,1,0,3.5,3.56A3.55,3.55,0,0,0,914,190Z" transform="translate(1)"/><path class="cls-8" d="M925.64,190.1a3.54,3.54,0,1,0,3.51,3.56A3.54,3.54,0,0,0,925.64,190.1Z" transform="translate(1)"/><path class="cls-8" d="M940.81,193.75a3.51,3.51,0,0,0-5.25-3.1q2.6,2,5.1,4A3.31,3.31,0,0,0,940.81,193.75Z" transform="translate(1)"/><path class="cls-8" d="M933.74,193.7a3.53,3.53,0,0,0,6.92,1q-2.5-2.08-5.1-4A3.53,3.53,0,0,0,933.74,193.7Z" transform="translate(1)"/><path class="cls-10" d="M696.57,379a93.41,93.41,0,0,0,19.77-22.58A29.45,29.45,0,0,0,696.57,379Z" transform="translate(1)"/><path class="cls-10" d="M697.69,384.33h24.14a92.81,92.81,0,0,0,7.93-24.49A129.25,129.25,0,0,1,697.69,384.33Z" transform="translate(1)"/><path class="cls-10" d="M729.76,359.84c.26-1.46.48-2.94.67-4.42a28.65,28.65,0,0,0-4.84-.42,29.47,29.47,0,0,0-9.25,1.46A93.41,93.41,0,0,1,696.57,379a29.63,29.63,0,0,0-.5,5.28h1.62A129.25,129.25,0,0,0,729.76,359.84Z" transform="translate(1)"/><path class="cls-10" d="M752.06,371.75a30.3,30.3,0,0,0-1.57-2.85,130.56,130.56,0,0,1-9.9,15.43h8.6A29.39,29.39,0,0,1,752.06,371.75Z" transform="translate(1)"/><path class="cls-10" d="M733.25,356c-1.14,1.29-2.3,2.55-3.49,3.8a92.81,92.81,0,0,1-7.93,24.49h18.76a130.56,130.56,0,0,0,9.9-15.43A29.49,29.49,0,0,0,733.25,356Z" transform="translate(1)"/><path class="cls-10" d="M729.76,359.84c1.19-1.25,2.35-2.51,3.49-3.8-.93-.25-1.87-.46-2.82-.62C730.24,356.9,730,358.38,729.76,359.84Z" transform="translate(1)"/><path class="cls-10" d="M805.18,371.75a29.43,29.43,0,0,0-53.12,0,29.27,29.27,0,0,1,2.85,12.58h47.4A29.39,29.39,0,0,1,805.18,371.75Z" transform="translate(1)"/><path class="cls-10" d="M749.19,384.32h5.72a29.27,29.27,0,0,0-2.85-12.58A29.39,29.39,0,0,0,749.19,384.32Z" transform="translate(1)"/><path class="cls-10" d="M855.45,383.74l-31.74.59h31.73C855.44,384.13,855.45,383.94,855.45,383.74Z" transform="translate(1)"/><path class="cls-10" d="M858.3,371.75a29.49,29.49,0,0,0-10.24-11.81l-25-3.65a29.52,29.52,0,0,0-17.89,15.46A29.42,29.42,0,0,1,808,384.33h15.67l31.74-.59A29.32,29.32,0,0,1,858.3,371.75Z" transform="translate(1)"/><path class="cls-10" d="M823.07,356.29l25,3.65a29.54,29.54,0,0,0-25-3.65Z" transform="translate(1)"/><path class="cls-10" d="M802.31,384.32H808a29.42,29.42,0,0,0-2.86-12.58A29.39,29.39,0,0,0,802.31,384.32Z" transform="translate(1)"/><path class="cls-10" d="M908.61,382.76l-47.47.88c0,.23,0,.46,0,.69h47.4C908.56,383.8,908.58,383.28,908.61,382.76Z" transform="translate(1)"/><path class="cls-10" d="M909.9,369l-44.61-6.51a29.36,29.36,0,0,0-7,9.29,29.24,29.24,0,0,1,2.84,11.89l47.47-.88a29.11,29.11,0,0,1,2.81-11A28.74,28.74,0,0,0,909.9,369Z" transform="translate(1)"/><path class="cls-10" d="M885,355a29.28,29.28,0,0,0-19.67,7.46L909.9,369A29.39,29.39,0,0,0,885,355Z" transform="translate(1)"/><path class="cls-10" d="M855.45,383.74c0,.2,0,.39,0,.58h5.72c0-.23,0-.46,0-.69Z" transform="translate(1)"/><path class="cls-10" d="M855.45,383.74l5.69-.1a29.24,29.24,0,0,0-2.84-11.89A29.32,29.32,0,0,0,855.45,383.74Z" transform="translate(1)"/><path class="cls-10" d="M914.23,382.66c0,.55,0,1.11,0,1.67H967.4c0-.89,0-1.77-.12-2.65Z" transform="translate(1)"/><path class="cls-10" d="M912.7,369.38c-.46.77-.89,1.56-1.28,2.37a29.17,29.17,0,0,1,2.81,10.91l53-1a29.75,29.75,0,0,0-.76-4.45Z" transform="translate(1)"/><path class="cls-10" d="M939.16,355a3.47,3.47,0,0,1,.41,1.64,3.54,3.54,0,0,1-7.07-.06,3.49,3.49,0,0,1,.21-1.13,29.14,29.14,0,0,0-4.83,1.3,3.5,3.5,0,0,1-5.49,2.69,29.72,29.72,0,0,0-9.69,9.91l53.82,7.85A29.42,29.42,0,0,0,939.16,355Z" transform="translate(1)"/><path class="cls-10" d="M927.88,356.78a30,30,0,0,0-5.49,2.69,3.5,3.5,0,0,0,5.49-2.69Z" transform="translate(1)"/><path class="cls-10" d="M936,360.17a3.52,3.52,0,0,0,3.56-3.5,3.47,3.47,0,0,0-.41-1.64l-1.08,0a28.91,28.91,0,0,0-5.37.48,3.49,3.49,0,0,0-.21,1.13A3.54,3.54,0,0,0,936,360.17Z" transform="translate(1)"/><path class="cls-10" d="M908.61,382.76c0,.52-.05,1-.05,1.56h5.72c0-.56,0-1.12,0-1.67Z" transform="translate(1)"/><path class="cls-10" d="M908.61,382.76l5.62-.1a29.17,29.17,0,0,0-2.81-10.91A29.11,29.11,0,0,0,908.61,382.76Z" transform="translate(1)"/></svg>