<svg id="Layer_1" data-name="Layer 1" xmlns="http://www.w3.org/2000/svg" xmlns:xlink="http://www.w3.org/1999/xlink" viewBox="0 0 931.71 497.67"><defs><style>.cls-1{fill:none;}.cls-2{clip-path:url(#clip-path);}.cls-3{fill:#f4a74e;}.cls-4{fill:#ef9370;}.cls-5{fill:#ec663c;}.cls-6{fill:#faf0d0;}.cls-7{fill:#c5dae5;}</style><clipPath id="clip-path" transform="translate(-1.17 -5.52)"><rect class="cls-1" x="-30" y="-47.26" width="865" height="452.26"/></clipPath></defs><title>background-peaks</title><g class="cls-2"><path class="cls-3" d="M814,178.45,775.46,9.83a5.53,5.53,0,0,0-10.61-.63L721.91,129.43,745.27,164C768.32,168.83,791.48,173.7,814,178.45Z" transform="translate(-1.17 -5.52)"/><path class="cls-3" d="M721.91,129.43,664,43.81a9.38,9.38,0,0,0-17.14,4.87l-3.86,94c21.91,4.53,45.2,9.38,69,14.36h0Z" transform="translate(-1.17 -5.52)"/><path class="cls-3" d="M745.27,164l-23.36-34.57L712,157.05C723,159.34,734.14,161.67,745.27,164Z" transform="translate(-1.17 -5.52)"/><path class="cls-3" d="M641.19,187.73,621.94,154a11.77,11.77,0,0,0-21,4.52l-58.25,293,67.11-8,23.63-66.18Z" transform="translate(-1.17 -5.52)"/><polygon class="cls-4" points="629.62 435.38 608.6 437.89 587.25 497.67 877.83 457.25 872.99 436.09 629.59 436.09 629.62 435.38"/><path class="cls-5" d="M844.15,310.31,814,178.45c-22.52-4.75-45.68-9.62-68.73-14.45Z" transform="translate(-1.17 -5.52)"/><polygon class="cls-4" points="632.23 371.72 608.6 437.89 629.62 435.38 632.23 371.72"/><polygon class="cls-6" points="931.71 436.09 842.98 304.79 872.99 436.09 931.71 436.09"/><path class="cls-5" d="M678,252.32l34-95.27c-23.8-5-47.09-9.83-69-14.36l-1.85,45Z" transform="translate(-1.17 -5.52)"/><polygon class="cls-4" points="676.85 246.79 640.02 182.2 632.23 371.72 676.85 246.79"/><path class="cls-7" d="M712,157.05l-34,95.27,97.63,171.23L630.79,440.9l0,.71h243.4l-30-131.3L745.27,164C734.14,161.67,723,159.34,712,157.05Z" transform="translate(-1.17 -5.52)"/><polygon class="cls-3" points="629.62 435.38 774.48 418.03 676.85 246.79 632.23 371.72 629.62 435.38"/><path class="cls-4" d="M100.44,268.47a6.5,6.5,0,0,0-11.37-.54L2.14,409.2a6.5,6.5,0,0,0,3.4,9.55l79.79,27.61,58.41-89.74Z" transform="translate(-1.17 -5.52)"/><path class="cls-5" d="M340.28,193.31,318.21,118a9.73,9.73,0,0,0-17.49-2.57l-157,241.21,58.12,118.32a6.5,6.5,0,0,1-8,9L85.33,446.36,62.79,481,429.9,499.25l-6.17-21.08-125.66-1.23Z" transform="translate(-1.17 -5.52)"/><path class="cls-3" d="M201.86,474.94,143.74,356.62,85.33,446.36,193.9,484A6.5,6.5,0,0,0,201.86,474.94Z" transform="translate(-1.17 -5.52)"/><path class="cls-7" d="M387.64,72a17.21,17.21,0,0,0-30.52,8.16L340.28,193.31l83.45,284.86,22.78.23L529.2,250.59Z" transform="translate(-1.17 -5.52)"/><polygon class="cls-6" points="610.79 474.5 710.65 475.48 585.56 317.65 645.75 473.45 610.79 474.5"/><polygon class="cls-6" points="296.9 471.42 422.56 472.65 339.11 187.79 296.9 471.42"/><path class="cls-7" d="M551.54,232.1a8.38,8.38,0,0,0-15.69.16l-6.65,18.33,57.53,72.58Z" transform="translate(-1.17 -5.52)"/><polygon class="cls-6" points="610.79 474.5 445.35 472.87 442.93 479.53 610.79 474.5"/><polygon class="cls-5" points="645.75 473.45 585.56 317.65 528.03 245.07 445.35 472.87 610.79 474.5 645.75 473.45"/></g></svg>